<?xml version="1.0" encoding="UTF-8"?>
<!-- Generator: visioncortex VTracer 0.6.3 -->
<svg version="1.1" xmlns="http://www.w3.org/2000/svg" width="1280" height="1280">
<path d="M0 0 C422.4 0 844.8 0 1280 0 C1280 422.4 1280 844.8 1280 1280 C857.6 1280 435.2 1280 0 1280 C0 857.6 0 435.2 0 0 Z " fill="#E7E6E6" transform="translate(0,0)"/>
<path d="M0 0 C4.1 1.61 6.76 4.58 9.75 7.69 C13.65 11.67 17.59 15.5 21.84 19.12 C26.38 23.07 30.77 27.21 35.18 31.31 C36.43 32.47 37.67 33.62 38.92 34.78 C45.48 40.86 52 46.93 58.27 53.3 C60.6 55.59 63.06 57.7 65.54 59.82 C73.69 67.02 81.62 74.52 89.24 82.27 C91.75 84.73 94.41 87 97.07 89.29 C98.95 90.96 100.73 92.7 102.5 94.5 C104.76 96.79 107.06 98.96 109.5 101.06 C119.02 109.29 128.09 118.01 136.93 126.95 C140.11 130.15 143.38 133.17 146.8 136.09 C153.92 142.27 160.82 148.72 167.41 155.44 C169.13 157.13 170.92 158.69 172.75 160.25 C176.16 163.18 179.34 166.3 182.5 169.5 C186.83 173.88 191.32 177.99 196 182 C202.78 187.89 209.18 194.1 215.47 200.51 C219.18 204.27 223 207.81 227 211.25 C230.31 214.14 233.49 217.17 236.69 220.19 C241.72 224.93 246.78 229.64 251.88 234.31 C256.63 238.68 261.21 243.19 265.75 247.78 C268.32 250.32 271.01 252.69 273.75 255.04 C282.19 262.39 290.23 270.12 298.05 278.11 C300.87 280.94 303.88 283.54 306.9 286.15 C310.48 289.3 313.92 292.59 317.38 295.88 C321.95 300.21 326.53 304.52 331.25 308.69 C335.79 312.73 340.05 317.02 344.33 321.34 C347.72 324.76 351.19 328.02 354.86 331.14 C362.99 338.19 370.76 345.63 378.27 353.33 C381.05 356.05 383.94 358.59 386.88 361.13 C390.46 364.29 393.91 367.59 397.38 370.88 C401.93 375.19 406.49 379.48 411.19 383.62 C415.98 387.88 420.46 392.43 424.97 396.98 C428.49 400.53 432.07 403.93 435.88 407.17 C443.54 413.79 450.86 420.78 457.96 427.99 C460.52 430.52 463.23 432.84 465.97 435.19 C468.24 437.21 470.37 439.34 472.5 441.5 C475.81 444.85 479.22 448 482.79 451.08 C490.64 457.9 498.11 465.06 505.43 472.45 C508.75 475.79 512.15 478.97 515.75 482.03 C520.92 486.55 525.88 491.31 530.88 496.01 C533.09 498.08 535.3 500.15 537.5 502.22 C539 503.62 540.5 505.03 542 506.44 C542.69 507.09 543.39 507.74 544.1 508.41 C547.94 512.01 551.7 515.67 555.4 519.42 C557.08 521.08 558.83 522.64 560.62 524.19 C569.82 532.14 578.56 540.5 587.12 549.13 C590.6 552.64 594.14 555.99 597.91 559.2 C603.07 563.65 608.01 568.36 613 573 C613.66 573.61 614.31 574.22 614.99 574.85 C622.4 581.74 629.73 588.67 636.84 595.87 C640.09 599.08 643.54 602.03 647 605 C653.59 610.74 659.81 616.76 665.95 622.97 C669.6 626.64 673.32 630.15 677.28 633.5 C679.1 635.09 680.8 636.77 682.5 638.5 C684.76 640.79 687.06 642.96 689.5 645.06 C698.98 653.25 708.02 661.95 716.83 670.86 C719.33 673.32 721.94 675.61 724.61 677.9 C733.03 685.3 741.15 693.06 749.02 701.05 C751.61 703.6 754.34 705.96 757.1 708.32 C758.98 709.98 760.74 711.71 762.5 713.5 C764.8 715.83 767.15 718.05 769.62 720.19 C778.59 727.94 787.14 736.07 795.48 744.49 C798.82 747.86 802.23 751.06 805.84 754.13 C813.23 760.53 820.33 767.25 827.18 774.21 C829.02 776.02 830.92 777.7 832.88 779.38 C836.07 782.12 839.04 785.01 842 788 C846.77 792.82 851.66 797.47 857.06 801.56 C863.85 806.91 867.29 813.88 870 822 C870.62 831.01 870.98 839.13 866 847 C865.53 847.82 865.05 848.64 864.56 849.48 C859.76 857.11 853.53 863.36 844.72 865.97 C832.87 868.06 822.31 866.47 812.09 859.75 C807.15 856.18 803.07 852.14 799 847.62 C793.01 841.1 786.87 834.78 780.54 828.58 C776.77 824.86 773.21 821.02 769.75 817 C766.84 813.67 763.79 810.46 760.75 807.25 C756.31 802.54 751.9 797.81 747.56 793 C742.47 787.41 737.14 782.08 731.74 776.78 C727.27 772.37 723.1 767.76 719 763 C712.53 755.74 705.84 748.78 698.93 741.94 C695.31 738.35 691.87 734.68 688.57 730.79 C686.8 728.77 684.92 726.89 683 725 C680.48 722.51 678.06 719.99 675.75 717.31 C667.06 707.26 657.88 697.76 648.41 688.44 C643.71 683.8 639.3 679.01 635 674 C628.96 667.21 622.72 660.67 616.26 654.29 C614.29 652.29 612.44 650.26 610.62 648.12 C607.59 644.57 604.33 641.29 601 638 C597.13 634.17 593.41 630.29 589.87 626.16 C582 617.07 573.62 608.51 565.05 600.09 C561.07 596.16 557.29 592.14 553.65 587.9 C551.16 585.03 548.58 582.23 546 579.44 C545.48 578.88 544.96 578.31 544.43 577.73 C541.21 574.26 537.92 570.89 534.54 567.57 C532.94 565.94 531.48 564.24 530 562.5 C526.38 558.28 522.45 554.41 518.5 550.5 C514.08 546.11 509.73 541.73 505.7 536.98 C498.26 528.28 490.26 520.16 482.1 512.14 C478.12 508.2 474.33 504.17 470.68 499.93 C468.01 496.86 465.22 493.9 462.44 490.94 C461.21 489.63 459.98 488.31 458.75 487 C458.12 486.34 457.5 485.67 456.86 484.99 C455.06 483.06 453.26 481.13 451.47 479.19 C445.04 472.24 438.5 465.45 431.77 458.79 C427.64 454.68 423.76 450.44 420 446 C413.73 438.73 407.04 431.96 400.2 425.24 C396.21 421.29 392.41 417.26 388.75 413 C385.68 409.49 382.46 406.13 379.25 402.75 C374.64 397.88 370.06 392.98 365.56 388 C360.27 382.18 354.71 376.65 349.1 371.14 C344.51 366.6 340.19 361.91 336 357 C330.26 350.41 324.23 344.19 318.02 338.04 C314.4 334.44 310.94 330.76 307.64 326.86 C305.68 324.64 303.6 322.58 301.5 320.5 C298.16 317.2 295.03 313.81 291.97 310.26 C283.84 300.93 275.22 292.12 266.41 283.44 C261.71 278.8 257.3 274 253 269 C247.2 262.49 241.24 256.18 235.03 250.06 C233.18 248.18 231.46 246.26 229.75 244.25 C226.52 240.47 223.03 236.99 219.5 233.5 C215.45 229.49 211.53 225.45 207.83 221.12 C199.99 212.04 191.61 203.49 183.05 195.09 C179.07 191.16 175.29 187.14 171.65 182.9 C169.16 180.03 166.58 177.23 164 174.44 C163.48 173.88 162.96 173.31 162.43 172.73 C159.26 169.31 156.02 165.98 152.69 162.72 C150.97 160.97 149.39 159.16 147.8 157.3 C144.06 153 140.07 148.99 136 145 C130.75 139.85 125.77 134.59 121 129 C114.72 121.75 108.05 114.97 101.2 108.24 C97.21 104.3 93.42 100.26 89.76 96.01 C86.65 92.45 83.38 89.05 80.12 85.62 C75.91 81.18 71.72 76.73 67.69 72.12 C62.37 66.14 56.62 60.57 50.91 54.95 C46.05 50.14 41.44 45.21 37 40 C31.64 33.88 26.09 28.04 20.31 22.33 C16.95 18.99 13.8 15.56 10.73 11.95 C7.88 8.74 4.8 5.78 1.72 2.79 C0 1 0 1 0 0 Z " fill="#FB914E" transform="translate(38,23)"/>
<path d="M0 0 C6.06 4.24 11.18 9 16.31 14.31 C21.8 19.9 27.28 25.06 33.45 29.89 C37.39 33.15 40.88 36.81 44.46 40.45 C47.13 43.13 49.9 45.6 52.77 48.06 C55.74 50.64 58.62 53.32 61.5 56 C65.04 59.29 68.59 62.54 72.25 65.69 C75.95 68.88 79.36 72.34 82.79 75.82 C85.36 78.35 88.04 80.71 90.77 83.05 C94.1 85.96 97.33 88.96 100.57 91.95 C103.4 94.55 106.27 97.12 109.19 99.62 C112.04 102.09 114.68 104.68 117.31 107.38 C120.47 110.58 123.72 113.46 127.25 116.25 C132.32 120.3 136.83 124.72 141.37 129.34 C144.76 132.78 148.22 136.06 151.91 139.2 C154.66 141.57 157.33 144.04 160 146.5 C163.33 149.57 166.68 152.61 170.12 155.56 C173.17 158.2 175.99 160.99 178.81 163.88 C182.18 167.29 185.62 170.39 189.38 173.38 C194.17 177.2 198.45 181.33 202.73 185.7 C205.97 188.99 209.29 192.1 212.81 195.09 C215.77 197.67 218.63 200.33 221.5 203 C225.02 206.27 228.54 209.5 232.19 212.62 C236.19 216.08 239.85 219.84 243.56 223.59 C246.27 226.27 249.08 228.77 251.96 231.25 C259.29 237.55 266.33 244.16 273.39 250.76 C280.18 257.11 287 263.44 294.06 269.5 C297.18 272.2 300.1 275.07 303 278 C306.49 281.53 310.05 284.87 313.81 288.1 C317.08 290.94 320.25 293.87 323.43 296.8 C326.7 299.81 329.99 302.79 333.31 305.75 C336.11 308.26 338.82 310.8 341.44 313.5 C344.15 316.27 347.03 318.66 350.06 321.06 C355.42 325.36 360.2 330.09 365.01 334.98 C368.54 338.56 372.11 341.98 375.95 345.23 C378.69 347.59 381.34 350.05 384 352.5 C387.35 355.59 390.73 358.65 394.19 361.62 C397.04 364.09 399.68 366.68 402.31 369.38 C405.47 372.58 408.72 375.46 412.25 378.25 C417.32 382.3 421.83 386.72 426.37 391.34 C429.76 394.78 433.22 398.06 436.91 401.2 C439.66 403.57 442.33 406.04 445 408.5 C448.33 411.57 451.68 414.61 455.12 417.56 C459.14 421.04 462.83 424.82 466.56 428.59 C469.27 431.27 472.08 433.77 474.97 436.25 C482.55 442.77 489.82 449.63 497.1 456.47 C503.62 462.6 510.22 468.61 517 474.44 C520.14 477.16 523.08 480.04 526 483 C529.49 486.53 533.05 489.87 536.81 493.1 C539.55 495.47 542.21 497.92 544.88 500.38 C548.5 503.71 552.14 507.03 555.81 510.31 C560.81 514.79 565.7 519.38 570.6 523.98 C573.81 526.98 577.04 529.95 580.38 532.81 C584.04 535.96 587.4 539.38 590.79 542.82 C593.36 545.35 596.04 547.71 598.77 550.05 C602.1 552.96 605.33 555.96 608.57 558.95 C611.4 561.55 614.27 564.12 617.19 566.62 C620.04 569.09 622.68 571.68 625.31 574.38 C628.45 577.56 631.68 580.42 635.19 583.19 C640.51 587.44 645.24 592.12 650 596.97 C653.05 600.07 656.11 603.07 659.44 605.88 C667.6 612.88 673.42 619.97 674.45 631 C675.14 643.05 671.94 651.47 664.25 660.88 C662.87 662.29 661.45 663.66 660 665 C659.33 665.62 658.66 666.25 657.97 666.89 C650 672.9 639.49 672.28 630 671 C625.63 669.84 621.91 668.25 618 666 C616.93 665.4 615.86 664.8 614.75 664.19 C608.07 658.88 602.56 652.44 597 646 C591.65 639.88 586.09 634.04 580.31 628.33 C576.33 624.37 572.64 620.26 569 616 C562.44 608.56 555.65 601.34 548.86 594.11 C545.23 590.25 541.61 586.38 538 582.5 C537.46 581.92 536.91 581.33 536.35 580.73 C533.68 577.84 531.05 574.93 528.5 571.94 C524.82 567.66 520.77 563.75 516.76 559.78 C513.29 556.33 509.97 552.81 506.8 549.08 C504 545.84 501.09 542.71 498.19 539.57 C495.24 536.36 492.33 533.13 489.44 529.88 C486.4 526.48 483.26 523.25 480 520.06 C476.73 516.84 473.77 513.55 470.94 509.94 C466.14 503.91 460.71 498.57 455.2 493.19 C451.16 489.23 447.32 485.18 443.63 480.89 C441.2 478.07 438.66 475.35 436.12 472.62 C432.52 468.74 428.95 464.84 425.44 460.88 C422.25 457.3 418.92 453.92 415.5 450.56 C412 447.11 408.79 443.61 405.75 439.75 C401.34 434.2 396.41 429.31 391.37 424.34 C387.71 420.73 384.19 417.08 380.87 413.15 C378.16 410.03 375.32 407.02 372.5 404 C369.1 400.36 365.72 396.73 362.5 392.94 C359.4 389.32 356.02 386.02 352.62 382.69 C347.82 377.96 343.51 373.05 339.32 367.76 C336.19 364.04 332.78 360.68 329.31 357.28 C325.91 353.94 322.73 350.49 319.64 346.86 C317.84 344.82 315.94 342.91 314 341 C310.12 337.17 306.56 333.12 303 329 C297.65 322.88 292.09 317.04 286.31 311.33 C282.95 307.99 279.76 304.56 276.68 300.96 C270.94 294.25 264.9 287.78 258.88 281.31 C258.3 280.69 257.73 280.08 257.14 279.44 C254.25 276.35 251.33 273.32 248.31 270.35 C245.69 267.75 243.37 265.06 241.12 262.12 C236.25 256.04 230.77 250.64 225.2 245.19 C221.15 241.21 217.29 237.15 213.59 232.85 C211.36 230.26 209.06 227.76 206.75 225.25 C205.8 224.22 204.85 223.18 203.89 222.15 C203.42 221.63 202.94 221.11 202.44 220.57 C201.02 219.03 199.61 217.47 198.2 215.91 C193.86 211.14 189.49 206.45 184.88 201.94 C181.6 198.71 178.66 195.42 175.81 191.81 C171.38 186.25 166.43 181.33 161.37 176.34 C157.71 172.73 154.19 169.08 150.87 165.15 C148.16 162.03 145.32 159.02 142.5 156 C139.1 152.36 135.72 148.73 132.5 144.94 C129.4 141.32 126.02 138.02 122.62 134.69 C118.69 130.81 114.99 126.91 111.56 122.56 C107.4 117.31 102.78 112.67 98.01 107.98 C94.48 104.5 91.11 100.97 87.9 97.19 C85.18 94.05 82.33 91.03 79.5 88 C76.06 84.32 72.64 80.64 69.38 76.81 C66.12 73.04 62.59 69.56 59.05 66.06 C55.83 62.87 52.8 59.59 49.86 56.14 C46.14 51.86 42.26 47.72 38.42 43.55 C36.19 41.12 33.97 38.68 31.75 36.25 C27.33 31.42 22.86 26.64 18.38 21.88 C9.71 12.64 9.71 12.64 5.69 8.25 C5.01 7.51 4.33 6.78 3.64 6.02 C2.06 4.07 1.07 2.24 0 0 Z " fill="#FB914E" transform="translate(116,280)"/>
<path d="M0 0 C4.95 4.18 9.73 8.49 14.44 12.94 C18.23 16.52 22.04 20.06 25.98 23.48 C30.04 27.01 33.97 30.68 37.88 34.38 C44.69 40.79 51.59 47.08 58.58 53.3 C62.95 57.2 67.19 61.15 71.3 65.33 C73.72 67.71 76.28 69.92 78.85 72.14 C88.59 80.58 97.99 89.42 107.44 98.19 C108.56 99.23 109.69 100.27 110.81 101.31 C111.63 102.07 111.63 102.07 112.47 102.85 C115.33 105.49 118.23 108.09 121.19 110.62 C125.19 114.08 128.85 117.84 132.57 121.6 C135.22 124.22 137.97 126.67 140.8 129.09 C144.12 131.98 147.34 134.97 150.57 137.95 C153.38 140.54 156.22 143.08 159.12 145.56 C162.17 148.2 164.99 150.99 167.81 153.88 C171.14 157.25 174.53 160.31 178.25 163.25 C183.56 167.48 188.26 172.15 193.01 176.98 C196.54 180.56 200.11 183.98 203.95 187.23 C206.69 189.59 209.34 192.05 212 194.5 C215.35 197.59 218.73 200.65 222.19 203.62 C225.91 206.84 229.33 210.32 232.79 213.81 C235.41 216.4 238.15 218.82 240.94 221.22 C248.75 227.96 256.24 235.03 263.74 242.11 C269.74 247.77 275.77 253.37 282.03 258.74 C285.84 262.02 289.46 265.42 293 269 C296.49 272.53 300.05 275.88 303.82 279.11 C306.51 281.44 309.13 283.84 311.75 286.25 C312.26 286.72 312.77 287.19 313.3 287.67 C314.34 288.63 315.39 289.6 316.44 290.56 C318.95 292.88 321.48 295.19 324 297.5 C327.05 300.29 330.1 303.09 333.14 305.89 C334.18 306.84 335.21 307.8 336.25 308.75 C337.01 309.45 337.01 309.45 337.78 310.16 C340.5 312.65 343.26 315.1 346.06 317.5 C349.88 320.8 353.4 324.37 356.94 327.95 C360.13 331.17 363.41 334.19 366.85 337.13 C370.1 339.96 373.26 342.89 376.43 345.8 C379.7 348.81 382.99 351.79 386.31 354.75 C389.11 357.26 391.82 359.8 394.44 362.5 C397.15 365.27 400.03 367.66 403.06 370.06 C408.42 374.36 413.2 379.09 418.02 383.98 C421.52 387.54 425.07 390.94 428.88 394.16 C431.82 396.71 434.65 399.36 437.5 402 C441.04 405.29 444.59 408.54 448.25 411.69 C451.08 414.13 453.7 416.7 456.31 419.38 C459.45 422.56 462.68 425.42 466.19 428.19 C471.51 432.44 476.24 437.13 481.01 441.98 C484.54 445.56 488.11 448.98 491.95 452.23 C494.69 454.59 497.34 457.05 500 459.5 C503.33 462.57 506.68 465.61 510.12 468.56 C513.17 471.2 515.99 473.99 518.81 476.88 C522.18 480.29 525.62 483.39 529.38 486.38 C534.17 490.2 538.45 494.33 542.73 498.7 C545.97 501.99 549.29 505.1 552.81 508.09 C555.77 510.67 558.63 513.33 561.5 516 C565 519.25 568.5 522.46 572.12 525.56 C575.92 528.84 579.41 532.39 582.93 535.95 C586.17 539.21 589.5 542.29 592.99 545.28 C602.72 553.63 612.04 562.47 621.44 571.19 C622.56 572.23 623.69 573.27 624.81 574.31 C625.36 574.82 625.91 575.33 626.47 575.85 C629.31 578.47 632.19 581.05 635.12 583.56 C638.92 586.83 642.41 590.39 645.93 593.95 C650.47 598.52 655.2 602.82 660.28 606.78 C667.25 612.45 672.41 619.98 674 629 C674.9 640.89 673.06 648.78 665.7 658.09 C659.59 664.97 652.31 671.03 642.95 672.27 C631.81 672.77 619.34 668.41 611 661 C607.86 657.86 604.88 654.57 601.93 651.25 C599.44 648.46 596.85 645.8 594.19 643.19 C590.9 639.94 587.82 636.6 584.81 633.1 C579.38 626.8 573.79 620.74 567.88 614.9 C565.52 612.52 563.36 610 561.18 607.46 C557.58 603.39 553.84 599.46 550.12 595.49 C547.16 592.34 544.24 589.17 541.44 585.88 C538.36 582.28 535 579 531.62 575.69 C526.82 570.96 522.51 566.05 518.32 560.76 C515.19 557.04 511.78 553.68 508.31 550.28 C504.91 546.94 501.73 543.49 498.64 539.86 C496.84 537.82 494.94 535.91 493 534 C489.12 530.17 485.56 526.12 482 522 C476.65 515.88 471.09 510.04 465.31 504.33 C461.95 500.99 458.76 497.56 455.68 493.96 C446.49 483.21 436.84 472.61 426.69 462.75 C423.88 459.99 421.44 457.09 419 454 C414.35 448.19 409.17 443.02 403.85 437.83 C399.93 434 396.23 430.07 392.66 425.91 C390.17 423.04 387.59 420.27 385 417.5 C381.77 414.03 378.57 410.55 375.5 406.94 C372.55 403.51 369.35 400.35 366.12 397.19 C362.41 393.54 358.97 389.85 355.75 385.75 C351.2 380.01 346.08 374.94 340.85 369.83 C336.93 366 333.23 362.07 329.66 357.91 C327.17 355.04 324.59 352.27 322 349.5 C318.81 346.07 315.65 342.64 312.62 339.06 C309.33 335.23 305.73 331.73 302.12 328.19 C297.16 323.3 292.67 318.27 288.35 312.79 C285.02 308.83 281.36 305.26 277.67 301.64 C274.11 298.14 270.76 294.55 267.53 290.75 C265.97 288.97 264.33 287.33 262.62 285.69 C259.9 283.01 257.54 280.2 255.19 277.19 C250.1 270.85 244.36 265.22 238.56 259.55 C233.8 254.88 229.33 250.07 225 245 C218.43 237.56 211.65 230.34 204.86 223.11 C201.23 219.25 197.61 215.38 194 211.5 C193.18 210.62 193.18 210.62 192.35 209.73 C189.68 206.84 187.05 203.93 184.5 200.94 C180.82 196.66 176.77 192.75 172.76 188.78 C169.29 185.33 165.97 181.81 162.8 178.08 C160 174.84 157.09 171.71 154.19 168.56 C151.26 165.38 148.37 162.17 145.5 158.94 C142.29 155.34 138.94 151.94 135.5 148.56 C132.04 145.15 128.87 141.7 125.88 137.88 C121.1 131.86 115.69 126.55 110.2 121.19 C106.16 117.23 102.33 113.18 98.64 108.9 C96.16 106.03 93.58 103.27 91 100.5 C87.79 97.05 84.61 93.59 81.56 90 C78.44 86.37 75.04 83.04 71.62 79.69 C66.76 74.89 62.37 69.92 58.12 64.56 C55.32 61.18 52.25 58.16 49.11 55.11 C47.18 53.18 45.39 51.2 43.62 49.12 C39.84 44.71 35.71 40.67 31.55 36.61 C25 29.9 25 29.9 25 27 C24.34 27 23.68 27 23 27 C21.59 25.57 21.59 25.57 19.93 23.56 C15.88 18.79 11.51 14.4 7.06 10 C6.28 9.23 5.5 8.45 4.7 7.65 C2.8 5.77 0.9 3.88 -1 2 C-0.67 1.34 -0.34 0.68 0 0 Z " fill="#FB914E" transform="translate(298,105)"/>
<path d="M0 0 C2.93 1.33 5.07 2.8 7.39 5.01 C8.01 5.6 8.64 6.19 9.28 6.8 C9.93 7.42 10.58 8.04 11.25 8.69 C12.6 9.97 13.96 11.25 15.32 12.53 C15.96 13.14 16.6 13.75 17.27 14.38 C19.2 16.19 21.18 17.95 23.19 19.69 C29.89 25.47 36.36 31.53 42.82 37.57 C43.48 38.18 44.13 38.79 44.8 39.42 C46.06 40.6 47.32 41.78 48.57 42.97 C51.65 45.86 54.77 48.69 57.96 51.46 C62.03 55 65.96 58.67 69.88 62.38 C76.48 68.6 83.1 74.8 90 80.71 C94 84.15 97.79 87.75 101.5 91.5 C105.16 95.2 108.89 98.75 112.85 102.13 C116.1 104.96 119.26 107.89 122.43 110.8 C125.7 113.81 128.99 116.79 132.31 119.75 C135.11 122.26 137.82 124.8 140.44 127.5 C143.13 130.25 145.98 132.62 149 135 C154.61 139.51 159.61 144.5 164.66 149.62 C168.31 153.33 172 156.9 175.98 160.27 C178.71 162.61 181.35 165.06 184 167.5 C187.35 170.59 190.73 173.65 194.19 176.62 C197.04 179.09 199.68 181.68 202.31 184.38 C205.47 187.58 208.72 190.46 212.25 193.25 C217.32 197.3 221.83 201.72 226.37 206.34 C229.76 209.78 233.22 213.06 236.91 216.2 C239.66 218.57 242.33 221.04 245 223.5 C248.31 226.55 251.64 229.57 255.06 232.5 C258.87 235.8 262.39 239.37 265.93 242.95 C269.17 246.21 272.51 249.3 276 252.29 C283.58 258.78 290.83 265.64 298.1 272.47 C304.62 278.6 311.22 284.61 318 290.44 C321.14 293.16 324.08 296.04 327 299 C330.49 302.53 334.05 305.88 337.82 309.11 C340.51 311.44 343.13 313.84 345.75 316.25 C346.52 316.95 346.52 316.95 347.3 317.67 C348.35 318.64 349.39 319.6 350.44 320.56 C352.44 322.41 354.45 324.25 356.46 326.08 C360.1 329.42 363.74 332.76 367.36 336.11 C368.49 337.16 369.62 338.2 370.75 339.25 C371.3 339.76 371.85 340.27 372.42 340.8 C375.3 343.46 378.21 346.07 381.19 348.62 C385.19 352.08 388.85 355.84 392.57 359.6 C395.22 362.22 397.97 364.67 400.8 367.09 C403.58 369.51 406.29 372 409 374.5 C412.35 377.59 415.73 380.65 419.19 383.62 C422.04 386.09 424.68 388.68 427.31 391.38 C430.45 394.56 433.68 397.42 437.19 400.19 C442.53 404.45 447.29 409.15 452.05 414.04 C454.68 416.73 457.29 419.29 460.24 421.64 C465.19 425.87 467.56 430.82 468.45 437.26 C468.73 445.5 467.5 450.98 462.09 457.19 C456.94 462.56 453.74 465.22 446.06 465.43 C438.16 465.45 432.37 465.16 426 460 C425.32 459.47 424.64 458.94 423.93 458.39 C419.82 454.99 416.28 451.21 412.83 447.15 C404.26 437.08 395.3 427.09 385.81 417.88 C382.96 415.07 380.47 412.14 378 409 C373.35 403.19 368.17 398.02 362.85 392.83 C358.94 389.01 355.25 385.09 351.69 380.94 C349.04 377.89 346.27 374.95 343.5 372 C340.08 368.34 336.68 364.69 333.44 360.88 C330.51 357.47 327.33 354.33 324.12 351.19 C320.37 347.5 316.89 343.76 313.62 339.62 C309.44 334.35 304.8 329.69 300.01 324.98 C296.48 321.5 293.11 317.97 289.9 314.19 C287.18 311.05 284.33 308.03 281.5 305 C278.1 301.36 274.72 297.73 271.5 293.94 C268.4 290.32 265.02 287.02 261.62 283.69 C256.82 278.96 252.51 274.05 248.32 268.76 C245.19 265.04 241.78 261.68 238.31 258.28 C234.9 254.93 231.72 251.48 228.63 247.85 C226.88 245.86 225.03 244.03 223.12 242.19 C220.19 239.3 217.6 236.3 215.06 233.06 C210.21 227 204.75 221.61 199.2 216.19 C194.57 211.64 190.22 206.94 186 202 C180.71 196.02 175.31 190.15 169.88 184.31 C169.3 183.69 168.73 183.08 168.14 182.44 C165.25 179.35 162.33 176.32 159.31 173.35 C156.69 170.75 154.37 168.06 152.12 165.12 C147.25 159.04 141.77 153.64 136.2 148.19 C132.15 144.21 128.29 140.15 124.59 135.85 C122.36 133.26 120.06 130.76 117.75 128.25 C116.8 127.22 115.85 126.18 114.9 125.15 C114.42 124.63 113.94 124.11 113.45 123.58 C112.01 122.02 110.59 120.45 109.16 118.88 C105 114.29 100.81 109.77 96.38 105.44 C93.27 102.38 90.51 99.22 87.81 95.81 C83.56 90.49 78.87 85.76 74.02 80.98 C70.48 77.5 67.11 73.97 63.9 70.19 C61.18 67.05 58.33 64.03 55.5 61 C52.1 57.36 48.72 53.73 45.5 49.94 C42.4 46.32 39.02 43.02 35.62 39.69 C30.8 34.94 26.46 30.01 22.25 24.69 C18.94 20.73 15.27 17.19 11.59 13.58 C7.34 9.34 3.33 5 0 0 Z " fill="#FC914E" transform="translate(517,177)"/>
<path d="M0 0 C3.01 1.34 5 2.8 7.25 5.19 C9.72 7.74 12.24 10.13 14.94 12.44 C17.72 14.83 20.32 17.31 22.88 19.94 C25.63 22.74 28.45 25.18 31.56 27.56 C37.01 31.81 41.76 36.65 46.6 41.57 C50.32 45.34 54.07 48.98 58.11 52.4 C60.45 54.38 62.72 56.44 65 58.5 C67.95 61.17 70.92 63.79 73.94 66.38 C77.23 69.23 80.27 72.27 83.31 75.38 C86.84 78.97 90.48 82.3 94.44 85.44 C99.21 89.24 103.47 93.35 107.73 97.7 C110.99 101.02 114.33 104.14 117.88 107.16 C120.64 109.55 123.32 112.02 126 114.5 C129.31 117.55 132.64 120.57 136.06 123.5 C139.31 126.31 142.31 129.31 145.31 132.38 C148.86 136 152.53 139.34 156.5 142.5 C161.51 146.49 165.96 150.86 170.43 155.43 C173.24 158.24 176.17 160.83 179.18 163.4 C180.98 164.99 182.65 166.65 184.31 168.38 C187.05 171.16 189.93 173.58 193 176 C198.61 180.5 203.61 185.5 208.65 190.62 C212.36 194.37 216.1 198 220.13 201.41 C224.17 204.84 228.07 208.44 232 212 C232.74 212.67 232.74 212.67 233.5 213.36 C243.55 222.48 243.55 222.48 247.56 226.62 C250.23 229.35 253.07 231.7 256.06 234.06 C261.42 238.36 266.2 243.09 271.01 247.98 C274.54 251.56 278.11 254.98 281.95 258.23 C284.69 260.59 287.34 263.05 290 265.5 C293.35 268.59 296.73 271.65 300.19 274.62 C303.04 277.09 305.68 279.68 308.31 282.38 C311.45 285.56 314.68 288.42 318.19 291.19 C323.51 295.44 328.24 300.13 333.01 304.98 C336.54 308.56 340.11 311.98 343.95 315.23 C346.69 317.59 349.34 320.05 352 322.5 C355.33 325.57 358.68 328.61 362.12 331.56 C365.17 334.2 367.99 336.99 370.81 339.88 C374.18 343.29 377.62 346.39 381.38 349.38 C386.17 353.2 390.45 357.33 394.73 361.7 C397.95 364.97 401.25 368.05 404.74 371.03 C407.89 373.78 410.94 376.64 414 379.5 C417.7 382.96 421.4 386.39 425.25 389.69 C429.23 393.12 432.87 396.86 436.56 400.59 C439.26 403.26 442.06 405.76 444.94 408.22 C448.19 411.03 451.36 413.92 454.54 416.81 C456.08 418.18 457.64 419.52 459.24 420.81 C465.53 425.93 469.46 430.6 470.48 438.85 C470.84 445.53 470.85 451.84 466.56 457.32 C466.05 457.88 465.53 458.43 465 459 C464.42 459.65 463.85 460.29 463.25 460.96 C459.66 464.76 456.73 467.65 451.37 468.34 C440.87 468.48 432.59 466.28 424.9 458.92 C424.27 458.29 423.65 457.65 423 457 C422.33 456.36 421.66 455.71 420.98 455.05 C416.39 450.58 412.18 445.84 408 441 C402.65 434.88 397.09 429.04 391.31 423.33 C387.33 419.37 383.64 415.26 380 411 C373.44 403.56 366.65 396.34 359.86 389.11 C356.23 385.25 352.61 381.38 349 377.5 C348.46 376.92 347.91 376.33 347.35 375.73 C344.68 372.84 342.05 369.93 339.5 366.94 C335.82 362.66 331.77 358.75 327.76 354.78 C324.29 351.33 320.97 347.81 317.79 344.07 C314.12 339.81 310.26 335.71 306.45 331.58 C305.01 330.02 303.59 328.45 302.16 326.88 C298 322.29 293.81 317.77 289.38 313.44 C286.33 310.44 283.64 307.36 281 304 C276.17 297.95 270.73 292.59 265.2 287.19 C261.15 283.22 257.3 279.16 253.6 274.86 C251.33 272.22 248.98 269.68 246.62 267.12 C243.21 263.43 239.84 259.7 236.5 255.94 C233.29 252.34 229.94 248.94 226.5 245.56 C223 242.11 219.79 238.61 216.75 234.75 C212.34 229.2 207.41 224.31 202.37 219.34 C198.71 215.73 195.19 212.08 191.87 208.15 C189.16 205.03 186.32 202.02 183.5 199 C180.12 195.38 176.76 191.78 173.56 188 C170.29 184.19 166.7 180.71 163.12 177.19 C158.16 172.3 153.67 167.27 149.35 161.79 C146.02 157.83 142.36 154.26 138.67 150.64 C135.11 147.14 131.76 143.55 128.53 139.75 C126.97 137.97 125.33 136.33 123.62 134.69 C120.91 132.03 118.58 129.24 116.25 126.25 C111.72 120.6 106.66 115.58 101.5 110.5 C95.61 104.7 90.06 98.94 84.97 92.41 C82.01 88.79 78.68 85.6 75.34 82.33 C72.68 79.69 70.27 76.9 67.84 74.05 C65.69 71.66 63.42 69.43 61.12 67.19 C57.73 63.84 54.65 60.42 51.69 56.69 C47.7 51.69 43.36 47.21 38.78 42.77 C35.26 39.34 32 35.77 28.79 32.05 C25.83 28.66 22.72 25.4 19.62 22.12 C4.15 5.68 4.15 5.68 0 0 Z " fill="#FB914E" transform="translate(174,482)"/>
<path d="M0 0 C8.17 5.23 13.51 13.72 16 23 C17.06 35.25 16.26 46.59 8.75 56.81 C1.32 65.56 -6.96 72.33 -18.69 73.31 C-28.61 73.71 -35.41 72.45 -44 67 C-44.99 66.51 -44.99 66.51 -46 66 C-48.31 76.56 -50.62 87.12 -53 98 C-61.25 98 -69.5 98 -78 98 C-79.41 93.78 -78.27 90.22 -77.4 85.97 C-77.22 85.05 -77.04 84.12 -76.85 83.17 C-76.24 80.11 -75.63 77.05 -75.01 74 C-74.59 71.88 -74.17 69.75 -73.74 67.63 C-72.86 63.19 -71.96 58.74 -71.07 54.3 C-69.92 48.59 -68.78 42.88 -67.65 37.17 C-66.78 32.79 -65.9 28.41 -65.02 24.03 C-64.6 21.93 -64.18 19.82 -63.76 17.71 C-63.18 14.77 -62.58 11.84 -61.99 8.9 C-61.82 8.02 -61.64 7.15 -61.47 6.24 C-60.23 0.23 -60.23 0.23 -58 -2 C-54.56 -2.48 -51.09 -2.37 -47.62 -2.38 C-46.67 -2.4 -45.71 -2.42 -44.72 -2.45 C-37.63 -2.48 -37.63 -2.48 -34.34 0.02 C-33.9 0.68 -33.45 1.33 -33 2 C-32.31 1.72 -31.63 1.45 -30.92 1.16 C-30.02 0.8 -29.12 0.44 -28.19 0.06 C-27.29 -0.3 -26.4 -0.66 -25.48 -1.03 C-17.02 -4.35 -8.28 -3.8 0 0 Z " fill="#FB914E" transform="translate(909,1046)"/>
<path d="M0 0 C1.03 -0 2.05 -0 3.11 -0 C4.73 0 4.73 0 6.38 0.01 C7.45 0 8.53 0 9.64 -0 C11.18 -0 11.18 -0 12.75 0 C13.7 0 14.64 0 15.62 0 C17.94 0.13 17.94 0.13 19.94 1.13 C19.58 9.17 18.06 16.84 16.31 24.67 C16.14 25.46 15.96 26.25 15.78 27.07 C15.62 27.78 15.46 28.49 15.29 29.22 C14.85 31.3 14.85 31.3 14.94 34.13 C26.49 34.13 38.04 34.13 49.94 34.13 C51.83 24.07 51.83 24.07 53.71 14 C53.95 12.75 54.19 11.5 54.43 10.21 C54.79 8.28 54.79 8.28 55.16 6.32 C55.94 3.13 55.94 3.13 57.94 0.13 C60.36 -0.22 60.36 -0.22 63.35 -0.2 C64.96 -0.19 64.96 -0.19 66.6 -0.18 C68.28 -0.15 68.28 -0.15 70 -0.12 C71.69 -0.11 71.69 -0.11 73.42 -0.1 C81.79 -0.02 81.79 -0.02 82.94 1.13 C83.2 6.93 82.56 12.16 81.4 17.83 C81.15 19.07 81.15 19.07 80.9 20.34 C80.36 23.05 79.81 25.76 79.26 28.47 C78.88 30.36 78.5 32.26 78.12 34.15 C77.33 38.1 76.53 42.05 75.73 46 C74.71 51.07 73.69 56.14 72.67 61.22 C71.89 65.12 71.11 69.02 70.32 72.91 C69.95 74.79 69.57 76.66 69.2 78.53 C68.67 81.14 68.14 83.74 67.62 86.34 C67.46 87.12 67.3 87.9 67.14 88.7 C66.06 94.02 66.06 94.02 64.94 95.13 C63.1 95.23 61.25 95.26 59.41 95.27 C58.29 95.27 57.17 95.27 56.02 95.27 C54.84 95.27 53.66 95.26 52.44 95.26 C50.67 95.26 50.67 95.26 48.87 95.27 C47.75 95.27 46.63 95.27 45.47 95.27 C44.44 95.26 43.4 95.26 42.33 95.26 C39.94 95.13 39.94 95.13 38.94 94.13 C39.06 86.11 40.8 78.25 42.5 70.45 C43.31 66.71 44.11 62.98 44.94 59.13 C33.39 59.13 21.84 59.13 9.94 59.13 C9.18 62.49 8.42 65.86 7.63 69.32 C7.17 71.34 6.71 73.36 6.25 75.38 C5.49 78.73 4.73 82.09 3.98 85.45 C3.72 86.61 3.46 87.76 3.19 88.95 C2.86 90.44 2.86 90.44 2.52 91.96 C1.94 94.13 1.94 94.13 0.94 95.13 C-0.91 95.22 -2.77 95.24 -4.62 95.23 C-5.75 95.23 -6.87 95.22 -8.03 95.22 C-9.22 95.21 -10.4 95.2 -11.62 95.2 C-12.81 95.19 -14 95.19 -15.22 95.18 C-18.17 95.17 -21.11 95.15 -24.06 95.13 C-25.19 91.75 -24.92 90.44 -24.23 86.99 C-24.01 85.88 -23.8 84.78 -23.57 83.64 C-23.32 82.4 -23.07 81.16 -22.81 79.88 C-22.55 78.57 -22.28 77.25 -22.02 75.93 C-21.41 72.86 -20.79 69.78 -20.18 66.71 C-19.11 61.39 -18.06 56.06 -17.01 50.73 C-16.03 45.74 -15.04 40.76 -14.05 35.77 C-13.56 33.26 -13.06 30.76 -12.57 28.25 C-11.87 24.69 -11.16 21.13 -10.45 17.56 C-10.24 16.48 -10.03 15.4 -9.81 14.29 C-9.61 13.29 -9.41 12.29 -9.2 11.26 C-8.94 9.95 -8.94 9.95 -8.68 8.61 C-6.53 0.01 -6.53 0.01 0 0 Z " fill="#FB914E" transform="translate(82.05859375,1022.8671875)"/>
<path d="M0 0 C2.96 -0.38 2.96 -0.38 6.8 -0.39 C7.5 -0.39 8.2 -0.4 8.92 -0.4 C11.24 -0.42 13.56 -0.41 15.88 -0.4 C17.48 -0.4 19.09 -0.4 20.69 -0.41 C24.06 -0.41 27.43 -0.41 30.8 -0.39 C35.13 -0.37 39.45 -0.38 43.78 -0.4 C47.09 -0.41 50.41 -0.41 53.73 -0.4 C55.33 -0.4 56.92 -0.4 58.52 -0.41 C60.74 -0.42 62.97 -0.4 65.2 -0.39 C67.1 -0.38 67.1 -0.38 69.04 -0.38 C70.02 -0.26 70.99 -0.13 72 0 C74 3 74 3 73.88 4.89 C73.7 5.58 73.53 6.27 73.36 6.98 C73.17 7.73 72.99 8.48 72.8 9.26 C72.6 10.04 72.4 10.82 72.19 11.62 C72 12.41 71.8 13.2 71.61 14.02 C70.16 19.84 70.16 19.84 69 21 C67.5 21.09 65.99 21.12 64.48 21.11 C63.04 21.11 63.04 21.11 61.57 21.11 C60.52 21.11 59.48 21.1 58.4 21.1 C57.34 21.1 56.27 21.09 55.18 21.09 C51.76 21.09 48.35 21.08 44.94 21.06 C42.63 21.06 40.32 21.05 38.01 21.05 C32.34 21.04 26.67 21.02 21 21 C20.67 26.28 20.34 31.56 20 37 C21.76 36.99 21.76 36.99 23.56 36.98 C27.91 36.97 32.26 36.95 36.61 36.95 C38.49 36.94 40.38 36.93 42.26 36.92 C44.97 36.91 47.67 36.91 50.37 36.9 C51.22 36.9 52.07 36.89 52.94 36.89 C54.96 36.89 56.98 36.94 59 37 C59.33 37.33 59.66 37.66 60 38 C59.65 53.35 59.65 53.35 56 57 C52.9 57.09 49.82 57.12 46.71 57.1 C45.78 57.1 44.85 57.09 43.89 57.09 C40.91 57.09 37.92 57.08 34.94 57.06 C32.92 57.06 30.9 57.05 28.88 57.05 C23.92 57.04 18.96 57.02 14 57 C13.91 57.96 13.91 57.96 13.82 58.94 C13.33 63.98 12.76 68.99 12 74 C12.59 74 13.17 74 13.78 73.99 C19.86 73.97 25.94 73.96 32.03 73.95 C34.3 73.94 36.57 73.93 38.84 73.92 C42.1 73.91 45.36 73.91 48.62 73.9 C49.64 73.9 50.67 73.89 51.72 73.89 C52.66 73.89 53.6 73.89 54.57 73.89 C55.4 73.88 56.24 73.88 57.1 73.88 C59 74 59 74 60 75 C59.98 77.19 59.98 77.19 59.75 80 C59.68 80.91 59.62 81.82 59.55 82.75 C59.07 85.58 58.39 88 57.47 90.7 C57.19 91.51 56.92 92.32 56.64 93.15 C56.43 93.76 56.22 94.37 56 95 C46.39 95.07 36.77 95.12 27.16 95.16 C22.69 95.17 18.23 95.19 13.77 95.23 C9.46 95.26 5.16 95.28 0.85 95.28 C-0.79 95.29 -2.44 95.3 -4.08 95.32 C-6.38 95.34 -8.68 95.34 -10.98 95.34 C-12.29 95.35 -13.6 95.35 -14.95 95.36 C-15.96 95.24 -16.96 95.12 -18 95 C-20 92 -20 92 -19.78 89.6 C-19.55 88.64 -19.33 87.69 -19.1 86.71 C-18.86 85.62 -18.61 84.53 -18.36 83.41 C-18.08 82.23 -17.8 81.04 -17.52 79.82 C-16.94 77.26 -16.37 74.7 -15.8 72.15 C-15.65 71.48 -15.5 70.81 -15.35 70.13 C-13.71 62.79 -12.28 55.41 -10.86 48.03 C-10.6 46.69 -10.34 45.35 -10.08 44.02 C-9.03 38.6 -7.99 33.17 -6.95 27.75 C-6.42 25.01 -5.9 22.28 -5.36 19.54 C-4.87 17 -4.38 14.46 -3.9 11.92 C-3.68 10.79 -3.46 9.66 -3.23 8.5 C-3.04 7.5 -2.85 6.51 -2.66 5.49 C-2 3 -2 3 0 0 Z " fill="#FC914E" transform="translate(680,1023)"/>
<path d="M0 0 C7.11 5.3 12 12.67 14.06 21.31 C15.27 33.91 13.63 43.84 6 54 C-0.75 62.06 -10.27 68.93 -20.94 70.31 C-36.18 71.31 -48.67 70.24 -60.94 60.31 C-67.11 54.81 -69.35 48.58 -70.25 40.46 C-70.75 28.24 -66.87 17.56 -58.94 8.31 C-44.75 -6.88 -17.81 -10.97 0 0 Z " fill="#FC914E" transform="translate(236.9375,1048.6875)"/>
<path d="M0 0 C7.08 7.59 10.57 16.01 10.44 26.31 C10.43 27.15 10.42 27.99 10.41 28.86 C10.09 41.28 4.64 49.75 -4.19 58.19 C-16.06 68.41 -29.12 68.82 -44 68 C-53.39 66.73 -62.65 61.4 -68.56 54 C-74.33 46.06 -73.89 35.35 -73 26 C-71.43 18.53 -68.01 12.68 -63 7 C-62.48 6.38 -61.95 5.77 -61.41 5.13 C-46.25 -11.46 -17.96 -12.32 0 0 Z " fill="#FC914E" transform="translate(510,1051)"/>
<path d="M0 0 C4.11 3.51 6.96 7.67 9.56 12.38 C9.9 12.98 10.25 13.58 10.6 14.2 C13.79 21.03 13.91 31.32 11.56 38.38 C-6.26 38.7 -24.08 39.04 -42.44 39.38 C-40.32 44.68 -38.47 46.86 -33.44 49.38 C-30.86 49.53 -28.33 49.61 -25.75 49.62 C-25.05 49.65 -24.36 49.67 -23.64 49.69 C-19.89 49.72 -17.09 49.4 -13.67 47.8 C-10.44 46.38 -10.44 46.38 -8.27 46.28 C-5.28 48.07 -3.87 50.98 -2.19 53.94 C-1.82 54.55 -1.46 55.17 -1.09 55.8 C-0.19 57.32 0.69 58.85 1.56 60.38 C-1.59 63.78 -4.13 66.03 -8.5 67.62 C-9.34 67.94 -10.17 68.25 -11.04 68.58 C-22.16 72.27 -37.01 72.09 -47.86 67.71 C-56.44 63.27 -63.98 58.15 -67.25 48.75 C-70.22 37.35 -68.56 26.21 -63.08 15.8 C-56.24 4.99 -47.87 -0.98 -35.56 -4.44 C-24.05 -7.01 -10.06 -6.9 0 0 Z " fill="#FB914E" transform="translate(1060.4375,1048.625)"/>
<path d="M0 0 C6.42 6.97 8.55 14.28 8.47 23.55 C7.86 31.8 5.95 39.86 4.25 47.94 C3.87 49.78 3.5 51.63 3.12 53.48 C0.4 66.73 0.4 66.73 -0.81 70.38 C-4.79 70.4 -8.77 70.42 -12.75 70.44 C-14.45 70.45 -14.45 70.45 -16.19 70.46 C-17.27 70.47 -18.35 70.47 -19.46 70.47 C-20.97 70.48 -20.97 70.48 -22.5 70.49 C-24.81 70.38 -24.81 70.38 -25.81 69.38 C-26.03 64.59 -25.55 60.36 -24.5 55.7 C-24.23 54.46 -23.96 53.22 -23.68 51.94 C-23.1 49.37 -22.53 46.79 -21.95 44.22 C-19.59 33.89 -19.59 33.89 -19.81 23.38 C-21.67 20.1 -21.67 20.1 -24.81 18.38 C-30.21 17.58 -34.07 18.78 -38.81 21.38 C-42.09 24.88 -43.53 27.81 -44.69 32.44 C-44.84 33.05 -45 33.66 -45.16 34.29 C-47.27 42.83 -49.01 51.47 -50.79 60.09 C-51.04 61.27 -51.29 62.46 -51.54 63.68 C-51.76 64.75 -51.98 65.82 -52.21 66.93 C-52.81 69.38 -52.81 69.38 -53.81 70.38 C-55.59 70.46 -57.38 70.48 -59.16 70.47 C-60.24 70.47 -61.32 70.47 -62.43 70.46 C-63.57 70.45 -64.7 70.45 -65.88 70.44 C-67.02 70.43 -68.16 70.43 -69.33 70.42 C-72.16 70.41 -74.99 70.4 -77.81 70.38 C-79.13 66.65 -78.52 63.84 -77.75 60.02 C-77.49 58.73 -77.23 57.44 -76.97 56.11 C-76.68 54.71 -76.39 53.31 -76.1 51.91 C-75.81 50.46 -75.52 49.02 -75.23 47.58 C-74.47 43.79 -73.69 39.99 -72.91 36.2 C-72.13 32.35 -71.35 28.49 -70.57 24.64 C-69.43 19 -68.29 13.37 -67.14 7.73 C-66.9 6.6 -66.67 5.46 -66.43 4.3 C-66.23 3.33 -66.02 2.37 -65.81 1.38 C-65.66 0.6 -65.51 -0.17 -65.35 -0.96 C-65.09 -1.78 -65.09 -1.78 -64.81 -2.62 C-62.36 -3.85 -60.76 -3.74 -58.02 -3.72 C-57.08 -3.72 -56.14 -3.72 -55.17 -3.71 C-53.69 -3.7 -53.69 -3.7 -52.19 -3.69 C-51.19 -3.68 -50.2 -3.68 -49.18 -3.67 C-46.72 -3.66 -44.27 -3.65 -41.81 -3.62 C-40.82 -1.64 -39.83 0.34 -38.81 2.38 C-38.03 1.78 -37.25 1.18 -36.44 0.56 C-25.4 -6.72 -11.31 -6.53 0 0 Z " fill="#FB914E" transform="translate(603.8125,1047.625)"/>
<path d="M0 0 C3.11 1.39 5.3 3.02 7.76 5.38 C8.46 6.05 9.16 6.72 9.89 7.41 C10.63 8.12 11.36 8.83 12.12 9.56 C13.66 11.02 15.19 12.48 16.72 13.94 C17.46 14.64 18.2 15.34 18.96 16.07 C24.1 20.93 29.4 25.62 34.75 30.25 C39.17 34.1 43.45 38.11 47.73 42.12 C50.75 44.95 53.81 47.72 56.94 50.44 C61.75 54.62 66.37 59.01 71 63.39 C75.57 67.71 80.25 71.88 85 76 C90.25 80.64 95.39 85.33 100.3 90.33 C102.72 92.71 105.28 94.92 107.85 97.14 C115.85 104.07 123.58 111.29 131.35 118.48 C140.24 126.71 140.24 126.71 149.31 134.75 C152.44 137.46 155.34 140.32 158.24 143.27 C160.63 145.62 163.16 147.8 165.71 149.99 C168.47 152.41 171.17 154.89 173.88 157.38 C178.36 161.5 182.88 165.6 187.42 169.67 C189.33 171.39 191.22 173.12 193.11 174.86 C193.91 175.6 193.91 175.6 194.72 176.35 C196.23 177.74 197.73 179.13 199.24 180.52 C201.01 182.11 202.83 183.65 204.71 185.11 C208.64 188.35 210.67 191.96 211.5 197.06 C210.86 200.85 209.38 203.01 207 206 C202.7 208.87 199.05 208.82 194 208 C187.16 204.98 182.64 199.66 178 194 C171.85 186.97 165.44 180.19 159.03 173.4 C145.07 158.6 145.07 158.6 138.5 150.94 C135.2 147.13 131.63 143.61 128.05 140.07 C124.16 136.21 120.56 132.16 117 128 C110.83 120.99 104.44 114.19 98.03 107.4 C91.05 100 84.07 92.59 77.44 84.88 C74.76 81.77 71.91 78.88 69 76 C65.5 72.53 62.18 69 58.98 65.26 C55.86 61.7 52.63 58.25 49.41 54.78 C46.69 51.86 44.03 48.91 41.44 45.88 C38.65 42.64 35.67 39.67 32.62 36.69 C28.16 32.31 24.21 27.65 20.32 22.76 C16.98 18.79 13.3 15.22 9.6 11.59 C6.22 8.22 2.94 4.76 0 1 C0 0.67 0 0.34 0 0 Z " fill="#FB914E" transform="translate(284,699)"/>
<path d="M0 0 C5.65 3.99 10.52 8.33 15.31 13.31 C20.48 18.59 25.71 23.38 31.51 27.95 C34.87 30.72 37.86 33.78 40.9 36.89 C43.4 39.4 46.02 41.69 48.7 43.99 C52.23 47.08 55.65 50.28 59.08 53.47 C61.98 56.17 64.91 58.8 67.9 61.39 C72.09 65.04 76.11 68.85 80.12 72.69 C85.42 77.72 90.78 82.61 96.38 87.31 C101.72 91.81 106.66 96.56 111.55 101.54 C114.26 104.26 117.08 106.78 119.99 109.28 C127.97 116.12 135.63 123.34 143.35 130.48 C146 132.93 148.66 135.37 151.31 137.81 C152.06 138.5 152.06 138.5 152.82 139.2 C155.6 141.74 158.4 144.23 161.25 146.69 C164.67 149.65 167.83 152.82 171.01 156.04 C173.54 158.53 176.19 160.84 178.88 163.16 C182.1 165.95 185.26 168.81 188.42 171.68 C190.14 173.23 191.87 174.76 193.61 176.29 C208.5 189.42 208.5 189.42 209.38 195.69 C208.88 200.09 206.94 202.76 204 206 C201.6 207.2 199.93 207.24 197.25 207.31 C196.41 207.35 195.57 207.39 194.7 207.43 C187.39 206.27 182.15 199.45 177.19 194.44 C176.38 193.63 175.58 192.82 174.75 191.99 C169.91 187.07 165.45 182.09 161.21 176.65 C157.98 172.77 154.4 169.27 150.78 165.76 C147.26 162.34 144.01 158.77 140.8 155.06 C137.79 151.62 134.64 148.32 131.5 145 C127.7 140.99 123.94 136.96 120.31 132.78 C117.81 129.9 115.24 127.16 112.5 124.5 C109.15 121.19 106 117.79 102.93 114.21 C99.18 109.91 95.29 105.75 91.43 101.55 C89.17 99.1 86.93 96.64 84.69 94.19 C79.81 88.85 74.87 83.58 69.93 78.3 C66.37 74.5 62.9 70.64 59.5 66.69 C57.38 64.31 55.11 62.1 52.84 59.87 C51.07 58.07 49.42 56.22 47.78 54.31 C43.97 49.93 40 45.71 36 41.5 C31.47 36.73 27.02 31.92 22.71 26.95 C19.88 23.73 16.94 20.62 14 17.5 C6.02 8.98 6.02 8.98 2.62 5.19 C2.1 4.6 1.58 4.02 1.04 3.42 C0 2 0 2 0 0 Z " fill="#FB914E" transform="translate(741,278)"/>
<path d="M0 0 C1.24 -0 2.48 -0.01 3.75 -0.01 C5.11 -0.01 6.46 -0.01 7.82 -0 C9.2 -0 10.59 -0.01 11.97 -0.01 C14.88 -0.01 17.78 -0.01 20.68 -0 C24.41 0 28.14 0 31.87 -0 C34.73 -0.01 37.59 -0.01 40.45 -0 C41.82 -0 43.2 -0 44.57 -0.01 C46.49 -0.01 48.41 -0 50.32 0 C51.42 0 52.51 0 53.64 0 C56.1 0.13 56.1 0.13 57.1 1.13 C57.06 7.22 56.67 13.05 53.1 18.13 C51.35 19.8 49.53 21.34 47.67 22.88 C44.32 25.81 41.22 28.96 38.1 32.13 C33.8 36.48 29.45 40.65 24.78 44.6 C21.94 47.18 19.39 50.05 17.1 53.13 C17.1 53.46 17.1 53.79 17.1 54.13 C17.97 54.15 18.83 54.18 19.73 54.21 C22.94 54.3 26.16 54.4 29.38 54.5 C30.77 54.55 32.16 54.59 33.56 54.63 C35.56 54.68 37.56 54.75 39.56 54.81 C40.76 54.85 41.97 54.89 43.21 54.92 C46.1 55.13 46.1 55.13 48.1 56.13 C47.81 58.19 47.52 60.26 47.22 62.32 C47.06 63.47 46.9 64.61 46.73 65.8 C46.15 68.83 45.28 71.3 44.1 74.13 C35.51 74.15 26.92 74.17 18.33 74.18 C14.35 74.19 10.36 74.19 6.37 74.2 C2.53 74.22 -1.32 74.22 -5.16 74.22 C-6.63 74.23 -8.1 74.23 -9.57 74.24 C-11.63 74.24 -13.68 74.24 -15.73 74.24 C-16.9 74.25 -18.07 74.25 -19.28 74.25 C-21.9 74.13 -21.9 74.13 -22.9 73.13 C-22.89 71.38 -22.79 69.63 -22.65 67.88 C-22.59 66.93 -22.52 65.97 -22.45 64.99 C-20.59 55.26 -10.27 48.23 -3.1 42.11 C0.31 39.04 3.5 35.75 6.72 32.49 C10.36 28.82 14.1 25.4 18.1 22.13 C15.42 20.79 13.24 20.93 10.25 20.85 C8.51 20.79 8.51 20.79 6.73 20.73 C4.26 20.66 1.8 20.59 -0.67 20.52 C-1.83 20.49 -2.99 20.45 -4.19 20.41 C-5.26 20.38 -6.33 20.35 -7.43 20.32 C-9.9 20.13 -9.9 20.13 -10.9 19.13 C-10.76 12.97 -10.04 6.92 -7.9 1.13 C-5.18 -0.23 -3.04 0 0 0 Z " fill="#FB914E" transform="translate(377.902587890625,1043.87060546875)"/>
<path d="M0 0 C3.89 -0.23 7.79 -0.37 11.69 -0.5 C12.79 -0.57 13.89 -0.63 15.03 -0.7 C23.03 -0.9 23.03 -0.9 25.79 1.66 C27.09 3.73 28.07 5.75 29 8 C29.73 9.22 29.73 9.22 30.48 10.46 C31.25 11.75 32.02 13.04 32.79 14.34 C34.07 16.3 34.07 16.3 37 18 C37.4 17.11 37.4 17.11 37.81 16.2 C39 13.99 40.2 12.56 41.97 10.8 C42.54 10.23 43.11 9.66 43.7 9.08 C44.29 8.49 44.89 7.91 45.5 7.31 C46.09 6.72 46.69 6.13 47.3 5.51 C52.82 0.06 52.82 0.06 56.43 -0.11 C57.92 -0.11 57.92 -0.11 59.45 -0.1 C60.52 -0.09 61.6 -0.09 62.71 -0.09 C63.83 -0.08 64.96 -0.07 66.12 -0.06 C67.83 -0.06 67.83 -0.06 69.57 -0.05 C72.38 -0.04 75.19 -0.02 78 0 C78 4 78 4 75.69 6.75 C74.63 7.8 73.57 8.84 72.49 9.87 C71.64 10.7 71.64 10.7 70.78 11.56 C68.96 13.34 67.14 15.11 65.31 16.88 C63.51 18.64 61.7 20.4 59.9 22.17 C58.78 23.27 57.66 24.37 56.53 25.46 C55 26.95 53.5 28.47 52 30 C51.49 30.49 50.99 30.97 50.47 31.47 C47.81 34.24 47 35.6 46.99 39.49 C48.02 43.06 49.28 45.95 51.09 49.2 C51.71 50.32 52.33 51.45 52.97 52.61 C53.62 53.78 54.28 54.95 54.94 56.12 C56.22 58.44 57.5 60.75 58.78 63.07 C59.35 64.09 59.92 65.11 60.5 66.16 C61.86 68.73 62.98 71.28 64 74 C59.94 74.15 55.88 74.23 51.81 74.31 C50.66 74.35 49.51 74.4 48.33 74.44 C39.81 74.56 39.81 74.56 35.94 71.88 C33.9 68.86 31.97 65.86 30.19 62.69 C29.58 61.62 28.98 60.55 28.36 59.45 C27.91 58.64 27.46 57.83 27 57 C21.03 61.82 16.05 67.24 11 73 C10 74 10 74 7.41 74.11 C6.28 74.11 5.16 74.1 4 74.1 C2.17 74.09 2.17 74.09 0.31 74.09 C-0.96 74.08 -2.24 74.07 -3.56 74.06 C-4.85 74.06 -6.13 74.05 -7.45 74.05 C-10.63 74.04 -13.82 74.02 -17 74 C-17 71 -17 71 -15.78 69.47 C-15.21 68.93 -14.64 68.39 -14.05 67.83 C-13.08 66.91 -13.08 66.91 -12.1 65.96 C-11.04 64.97 -11.04 64.97 -9.96 63.95 C-8.5 62.54 -7.04 61.12 -5.58 59.7 C-3.26 57.47 -0.93 55.25 1.4 53.04 C3.65 50.9 5.88 48.74 8.1 46.58 C8.8 45.92 9.51 45.27 10.23 44.6 C14.29 40.69 14.29 40.69 15.03 35.23 C13.87 31.6 12.36 28.69 10.38 25.44 C9.65 24.22 8.93 23 8.21 21.79 C7.85 21.17 7.48 20.55 7.1 19.91 C5.29 16.78 3.59 13.59 1.94 10.38 C1.35 9.25 0.76 8.12 0.15 6.96 C-1.08 3.8 -0.97 3.07 0 0 Z " fill="#FB914E" transform="translate(761,1044)"/>
<path d="M0 0 C1.07 0.2 1.07 0.2 2.16 0.4 C5.16 1.05 6.68 1.51 8.39 4.12 C9.26 8.23 7.58 10.82 5.62 14.31 C5.28 14.96 4.94 15.6 4.59 16.27 C3.74 17.85 2.87 19.43 2 21 C1.43 20.88 0.86 20.76 0.27 20.63 C-2.48 20.06 -5.24 19.53 -8 19 C-9.57 18.68 -9.57 18.68 -11.17 18.35 C-18.62 16.98 -24.66 17.09 -32 19 C-31.51 21.47 -31.51 21.47 -31 24 C-29.98 24.24 -28.97 24.48 -27.92 24.73 C-23.6 25.78 -19.3 26.88 -15 28 C-13.84 28.3 -12.67 28.6 -11.48 28.91 C-3.75 31.16 0.05 34.05 4.12 40.89 C6.1 45.65 5.74 51.39 4.35 56.29 C0.59 64.66 -6.24 68.43 -14.35 72.02 C-28.26 77.17 -47.35 75.17 -61 70 C-63.43 68.36 -63.43 68.36 -65 67 C-64.42 62.58 -62.73 59.48 -60.44 55.69 C-59.48 54.08 -59.48 54.08 -58.5 52.45 C-58 51.64 -57.51 50.83 -57 50 C-53.39 50.46 -50.23 51.26 -46.85 52.55 C-41.37 54.44 -36.17 54.34 -30.44 54.19 C-29.43 54.17 -28.42 54.16 -27.38 54.15 C-24.92 54.11 -22.46 54.06 -20 54 C-20.23 51 -20.23 51 -22 48 C-25.22 46.57 -28.6 46.04 -32.06 45.44 C-41.18 43.75 -48.82 41.07 -56 35 C-57.14 31.57 -57.2 28.8 -57.25 25.19 C-57.29 23.38 -57.29 23.38 -57.33 21.54 C-56.74 15.23 -53.68 10.94 -49.21 6.67 C-35.4 -3.77 -16.09 -3.72 0 0 Z " fill="#FC914E" transform="translate(1214,1045)"/>
<path d="M0 0 C0.93 1.65 0.93 1.65 1 4 C-0.05 6.54 -1.14 8.84 -2.44 11.25 C-2.78 11.9 -3.11 12.55 -3.46 13.22 C-4.3 14.82 -5.15 16.41 -6 18 C-6.58 17.88 -7.17 17.76 -7.77 17.63 C-9.51 17.28 -11.26 16.93 -13.02 16.59 C-15.01 16.19 -17 15.78 -18.98 15.35 C-25.47 14.06 -31.76 13.28 -38 16 C-39.78 17.99 -39.78 17.99 -41 20 C-35.39 22.53 -29.36 23.67 -23.39 25.06 C-15.26 27.01 -10 29.19 -5 36 C-1.98 40.98 -2.3 46.36 -3 52 C-5.98 59.81 -12.45 64.43 -19.68 68.11 C-26.88 70.88 -33.54 71.36 -41.19 71.31 C-42.2 71.31 -43.22 71.3 -44.27 71.3 C-54.72 71.14 -64.15 69.97 -73 64 C-71.28 57.91 -68.52 51.52 -64 47 C-61.56 47.22 -59.41 47.84 -57.13 48.73 C-50.96 51.08 -45.49 51.37 -38.94 51.19 C-37.98 51.17 -37.02 51.16 -36.03 51.15 C-33.68 51.11 -31.34 51.06 -29 51 C-28.67 49.68 -28.34 48.36 -28 47 C-32.39 43.89 -36.58 43.09 -41.75 42.12 C-50.4 40.35 -58.15 38.07 -64 31 C-66.44 26.12 -65.71 18.78 -64.39 13.61 C-61.22 6.52 -55.21 1.71 -48.19 -1.31 C-32.93 -6.73 -14.79 -7.12 0 0 Z " fill="#FC914E" transform="translate(1147,1048)"/>
<path d="M0 0 C0.84 -0.01 1.69 -0.01 2.56 -0.02 C3.48 -0.02 4.41 -0.03 5.36 -0.04 C6.32 -0.02 7.29 0 8.28 0.02 C9.24 0 10.21 -0.02 11.2 -0.04 C13.83 -0.02 16.21 0.06 18.78 0.65 C20.94 3.19 20.94 3.19 21.78 5.65 C22.35 5.35 22.93 5.05 23.52 4.75 C30.63 1.28 36.89 0.2 44.78 0.65 C44.34 8.18 43.64 15.33 41.78 22.65 C40.78 22.74 39.78 22.84 38.74 22.94 C28.52 23.81 28.52 23.81 19.78 28.65 C15.09 37.21 13.57 46.68 11.59 56.15 C11.06 58.64 10.53 61.14 9.99 63.64 C9.66 65.18 9.33 66.73 9.01 68.28 C7.89 73.54 7.89 73.54 6.78 74.65 C2.97 74.93 -0.84 74.88 -4.66 74.9 C-5.73 74.92 -6.81 74.94 -7.92 74.96 C-9.46 74.97 -9.46 74.97 -11.03 74.98 C-11.98 74.98 -12.92 74.99 -13.9 75 C-14.66 74.89 -15.43 74.77 -16.22 74.65 C-18.22 71.65 -18.22 71.65 -18.01 69.02 C-17.68 67.43 -17.68 67.43 -17.35 65.8 C-16.99 63.99 -16.99 63.99 -16.62 62.13 C-16.34 60.81 -16.06 59.48 -15.78 58.15 C-15.5 56.78 -15.23 55.41 -14.95 54.04 C-14.51 51.87 -14.07 49.7 -13.62 47.53 C-12.49 42.03 -11.42 36.51 -10.36 30.98 C-9.9 28.6 -9.44 26.23 -8.98 23.85 C-8.68 22.3 -8.39 20.76 -8.1 19.22 C-7.69 17.04 -7.26 14.87 -6.83 12.7 C-6.59 11.46 -6.36 10.22 -6.11 8.94 C-4.01 1.17 -4.01 1.17 0 0 Z " fill="#FC914E" transform="translate(948.220703125,1043.35302734375)"/>
<path d="M0 0 C0.46 7.63 -1.25 14.6 -3 22 C-4.01 22.11 -5.03 22.22 -6.07 22.33 C-7.42 22.49 -8.77 22.65 -10.12 22.81 C-10.79 22.88 -11.46 22.95 -12.14 23.03 C-16.71 23.59 -20.26 24.28 -24 27 C-29.85 34.83 -30.96 45.07 -32.69 54.44 C-33.13 56.77 -33.57 59.09 -34.02 61.42 C-34.3 62.86 -34.57 64.29 -34.83 65.73 C-35.47 69.08 -36.08 71.12 -38 74 C-40.31 74.39 -40.31 74.39 -43.16 74.4 C-44.18 74.4 -45.2 74.41 -46.25 74.41 C-47.33 74.4 -48.4 74.39 -49.5 74.38 C-51.11 74.39 -51.11 74.39 -52.75 74.41 C-53.77 74.41 -54.79 74.4 -55.84 74.4 C-56.78 74.4 -57.72 74.39 -58.69 74.39 C-59.84 74.2 -59.84 74.2 -61 74 C-63.55 70.18 -62.95 69.1 -62.08 64.68 C-61.96 64.04 -61.84 63.41 -61.71 62.75 C-61.31 60.65 -60.88 58.55 -60.46 56.45 C-60.17 54.98 -59.88 53.52 -59.6 52.05 C-58.99 48.98 -58.38 45.92 -57.76 42.85 C-56.97 38.93 -56.2 35 -55.43 31.07 C-54.84 28.05 -54.24 25.02 -53.64 22 C-53.35 20.55 -53.07 19.11 -52.79 17.66 C-52.39 15.63 -51.98 13.6 -51.57 11.58 C-51.34 10.43 -51.11 9.27 -50.87 8.09 C-49.98 4.94 -48.92 2.64 -47 0 C-44.73 -0.57 -44.73 -0.57 -42.11 -0.49 C-41.18 -0.47 -40.24 -0.46 -39.27 -0.44 C-38.3 -0.4 -37.32 -0.36 -36.31 -0.31 C-34.83 -0.28 -34.83 -0.28 -33.32 -0.24 C-30.88 -0.19 -28.44 -0.1 -26 0 C-25 2 -24 4 -23 6 C-21.97 5.38 -20.94 4.76 -19.88 4.12 C-14.64 1.15 -5.87 -2.93 0 0 Z " fill="#FC914E" transform="translate(319,1044)"/>
<path d="M0 0 C1.54 -0.02 1.54 -0.02 3.1 -0.04 C4.08 -0.04 5.06 -0.04 6.06 -0.04 C7.41 -0.05 7.41 -0.05 8.79 -0.06 C11 0.19 11 0.19 13 2.19 C12.85 4.76 12.85 4.76 12.28 7.99 C12.08 9.16 11.88 10.34 11.67 11.55 C11.45 12.75 11.23 13.95 11 15.19 C10.8 16.26 10.6 17.34 10.4 18.45 C9.78 21.75 9.13 25.05 8.47 28.35 C8.23 29.54 8 30.73 7.75 31.96 C7.26 34.46 6.76 36.95 6.26 39.45 C5.5 43.27 4.74 47.09 3.99 50.92 C3.5 53.35 3.02 55.79 2.53 58.22 C2.31 59.36 2.08 60.51 1.85 61.68 C1.64 62.74 1.43 63.8 1.21 64.89 C1.02 65.82 0.84 66.75 0.64 67.71 C0.02 70.09 -0.81 72.04 -2 74.19 C-5.81 74.22 -9.62 74.23 -13.44 74.25 C-14.53 74.26 -15.61 74.27 -16.74 74.28 C-17.77 74.28 -18.81 74.28 -19.87 74.29 C-20.83 74.29 -21.79 74.3 -22.78 74.3 C-25 74.19 -25 74.19 -26 73.19 C-26.29 67.77 -25.53 62.9 -24.43 57.63 C-24.26 56.82 -24.1 56.01 -23.93 55.17 C-23.4 52.55 -22.85 49.93 -22.31 47.31 C-21.94 45.51 -21.58 43.71 -21.21 41.91 C-20.66 39.21 -20.11 36.51 -19.55 33.82 C-18.48 28.56 -17.43 23.3 -16.43 18.03 C-16.2 16.86 -15.98 15.7 -15.75 14.5 C-15.34 12.38 -14.94 10.26 -14.55 8.14 C-14.37 7.22 -14.19 6.3 -14.01 5.35 C-13.86 4.56 -13.71 3.77 -13.56 2.96 C-13.37 2.38 -13.19 1.79 -13 1.19 C-9.11 -0.76 -4.27 0 0 0 Z " fill="#FB914E" transform="translate(343,1043.8125)"/>
<path d="M0 0 C3.53 3.01 4.97 5.68 5.59 10.3 C5.69 22.68 5.69 22.68 1.71 28.3 C-2.09 31.94 -5.45 33.27 -10.69 33.38 C-15.96 33.21 -19.46 32.3 -23.44 28.77 C-26.19 25.02 -26.29 21.34 -25.88 16.81 C-24.82 11.07 -23.28 5.85 -18.88 1.81 C-12.79 -1.65 -6.53 -2.7 0 0 Z " fill="#E7E7E7" transform="translate(218.875,1065.1875)"/>
<path d="M0 0 C4.69 5.24 5.69 9.73 5.47 16.62 C4.76 22.33 2.45 26.59 -1.88 30.38 C-6.78 33.47 -12.31 33.47 -17.88 32.38 C-21.41 30.39 -24.05 28.02 -25.88 24.38 C-26.65 16.97 -25.94 10.72 -21.88 4.38 C-16.04 -1.46 -7.54 -4.26 0 0 Z " fill="#E7E7E7" transform="translate(488.875,1065.625)"/>
<path d="M0 0 C3.53 3.01 4.97 5.68 5.59 10.3 C5.69 22.68 5.69 22.68 1.71 28.3 C-2.13 31.97 -5.46 33.26 -10.75 33.31 C-15.65 33.18 -18.88 32.54 -22.6 29.29 C-25.19 26.28 -25.88 23.6 -25.86 19.68 C-25.34 12.77 -23.67 7.14 -18.38 2.44 C-13.05 -1.93 -6.35 -2.62 0 0 Z " fill="#E7E7E7" transform="translate(892.875,1065.1875)"/>
<path d="M0 0 C0.76 0.08 1.52 0.16 2.31 0.24 C4.68 0.71 6.46 1.52 8.56 2.69 C8.56 2.03 8.56 1.37 8.56 0.69 C10.21 0.36 11.86 0.03 13.56 -0.31 C15.21 5.73 13.84 11.08 12.56 17.06 C12.38 18.07 12.19 19.07 12 20.1 C10.51 27.2 8.02 31.84 2.56 36.69 C-0.35 38.14 -2.94 37.86 -6.19 37.88 C-7.4 37.89 -8.61 37.9 -9.86 37.92 C-13.4 37.69 -16.14 36.97 -19.44 35.69 C-18.78 34.04 -18.12 32.39 -17.44 30.69 C-16.33 30.82 -15.22 30.95 -14.08 31.08 C-12.61 31.22 -11.15 31.36 -9.69 31.5 C-8.96 31.59 -8.23 31.68 -7.48 31.77 C-5.04 32.04 -5.04 32.04 -1.44 31.69 C1.12 29.36 1.12 29.36 2.56 26.69 C1.86 26.75 1.16 26.8 0.44 26.86 C-5.5 27.15 -10.05 26.93 -14.96 23.38 C-17.27 20.73 -17.61 18.34 -17.67 14.89 C-17.03 8.81 -13.61 5.61 -9.16 1.89 C-6.04 -0.29 -3.64 -0.41 0 0 Z " fill="#FB914E" transform="translate(1000.4375,1195.3125)"/>
<path d="M0 0 C2.17 1.54 2.82 2.64 4 5 C4.44 7.81 4.44 7.81 4 11 C2.18 13.16 0.38 14.38 -2 16 C-2.66 16 -3.32 16 -4 16 C-2.61 19.37 -1.02 20.99 2 23 C2.99 21.68 3.98 20.36 5 19 C6.32 19.66 7.64 20.32 9 21 C8.67 21.66 8.34 22.32 8 23 C7.06 25.81 6.94 27.31 7.06 30.19 C7.04 31.45 7.02 32.7 7 34 C6.01 34.66 5.02 35.32 4 36 C3.5 35.51 3.5 35.51 3 35 C2.09 35.14 1.18 35.29 0.25 35.44 C-14.99 37.77 -14.99 37.77 -20.75 34.31 C-23 32 -23 32 -24.06 29.62 C-23.98 25.99 -23 24.04 -21 21 C-17.81 18.62 -17.81 18.62 -15 17 C-15.11 16.41 -15.21 15.82 -15.32 15.21 C-16.3 8.77 -16.3 8.77 -14.88 5.12 C-10.37 0.02 -6.55 -0.63 0 0 Z " fill="#FC914E" transform="translate(855,1187)"/>
<path d="M0 0 C0.79 0.08 1.57 0.16 2.38 0.24 C4.44 0.69 4.44 0.69 6.44 2.69 C7.06 2.19 7.67 1.7 8.31 1.19 C10.44 -0.31 10.44 -0.31 12.44 -0.31 C12.44 0.35 12.44 1.01 12.44 1.69 C13.1 1.69 13.76 1.69 14.44 1.69 C13.21 10.48 11.55 19.07 9.44 27.69 C6.39 27.8 3.36 27.88 0.31 27.94 C-0.54 27.97 -1.4 28 -2.28 28.04 C-8.06 28.13 -11.12 27.46 -15.56 23.69 C-18.15 20.27 -17.92 16.86 -17.56 12.69 C-15.68 7.25 -12.19 3.92 -7.56 0.69 C-4.54 -0.32 -3.09 -0.34 0 0 Z " fill="#FC914E" transform="translate(562.5625,1195.3125)"/>
<path d="M0 0 C0.99 0.66 1.98 1.32 3 2 C3.62 1.51 4.24 1.01 4.88 0.5 C7 -1 7 -1 9 -1 C10.58 4.91 9.29 10.03 8.06 15.88 C7.87 16.85 7.67 17.82 7.47 18.83 C6.99 21.22 6.5 23.61 6 26 C2.54 26.78 0.41 26.97 -3 26 C-3.33 26.33 -3.66 26.66 -4 27 C-8.8 27.55 -13.41 27.85 -17.56 25.12 C-20.11 22.9 -20.89 22.13 -21.2 18.83 C-21.32 12.17 -20.46 8.05 -16.19 2.75 C-10.91 -1.47 -6.3 -1.24 0 0 Z " fill="#FC914E" transform="translate(420,1196)"/>
<path d="M0 0 C1.65 -0.99 3.3 -1.98 5 -3 C5 -2.34 5 -1.68 5 -1 C5.66 -1 6.32 -1 7 -1 C5.85 7.37 4.59 15.7 3 24 C-0.46 24.78 -2.59 24.97 -6 24 C-6.33 24.33 -6.66 24.66 -7 25 C-11.93 25.66 -16.7 25.7 -21.12 23.25 C-23.5 21.3 -23.96 20.23 -24.53 17.17 C-24.7 11.5 -24.37 7.7 -21 3 C-14.96 -3.37 -7.65 -5.1 0 0 Z " fill="#FC914E" transform="translate(948,1198)"/>
<path d="M0 0 C1.04 -0.03 2.08 -0.05 3.14 -0.08 C7.49 0.39 10.1 2.05 13 5.25 C14.86 9.95 15.33 14.3 14.19 19.25 C11.14 23.2 6.97 26.87 1.9 27.56 C-4.52 27.86 -8.93 27.09 -14.12 23.16 C-16.59 20.37 -17.05 18.1 -17.08 14.42 C-16.47 9.53 -14.39 6.57 -10.75 3.44 C-6.77 0.48 -4.91 0.07 0 0 Z " fill="#FC914E" transform="translate(348.8125,1008.75)"/>
<path d="M0 0 C3.91 3.19 5.19 5.56 6 10.5 C6.28 15.66 4.87 18.68 1.62 22.7 C-1.82 26.25 -4.54 27.43 -9.5 27.62 C-14.73 27.32 -17.88 26.24 -22 23 C-24.38 19.43 -24.22 16.19 -23.54 11.99 C-22.27 7.29 -19.75 4.56 -15.94 1.69 C-10.5 -1.43 -6.01 -1.52 0 0 Z " fill="#FC914E" transform="translate(1043,1196)"/>
<path d="M0 0 C3.17 2.4 4.74 5.23 6 9 C6.54 14.74 5.67 17.56 2 22 C-0.86 25.2 -2.36 26.71 -6.59 27.45 C-12.82 27.7 -17.2 27.08 -22 23 C-24.38 18.77 -24.27 14.91 -23 10.31 C-20.88 4.87 -17.68 2.64 -12.75 -0.38 C-8.37 -1.37 -4.32 -1.23 0 0 Z " fill="#FC914E" transform="translate(675,1196)"/>
<path d="M0 0 C3.4 2.76 5.73 4.94 6.31 9.36 C6.54 14.49 6.63 18.03 3.19 22.06 C-0.35 25.64 -3.1 27.32 -8.19 27.44 C-13.02 27.32 -16.57 26.6 -20.53 23.75 C-22.95 20.87 -23.17 18.11 -23.23 14.43 C-22.74 9.3 -20.78 6.75 -17.12 3.25 C-11.38 -0.89 -6.89 -1.97 0 0 Z " fill="#FC914E" transform="translate(497,1196)"/>
<path d="M0 0 C2.94 2.19 4.81 4.53 6 8 C6 10.31 6 12.62 6 15 C-0.6 15.33 -7.2 15.66 -14 16 C-14 16.99 -14 17.98 -14 19 C-10.97 21.02 -10.39 21.26 -7 21.19 C-6.32 21.18 -5.64 21.17 -4.94 21.17 C-2.78 21.06 -2.78 21.06 0 20 C0.66 21.32 1.32 22.64 2 24 C-2.16 27.75 -5.69 27.49 -11.08 27.36 C-15.19 26.85 -16.97 25.79 -20 23 C-22.71 18.93 -22.64 15.77 -22 11 C-20.17 5.68 -16.87 2.69 -12 0 C-7.83 -1.39 -4.25 -1 0 0 Z " fill="#FB914E" transform="translate(783,1196)"/>
<path d="M0 0 C3.06 2.5 3.06 2.5 5 6 C5 8.97 5 11.94 5 15 C-5.39 15.49 -5.39 15.49 -16 16 C-11.89 20.98 -11.89 20.98 -8.87 21.52 C-5.73 21.29 -3 21 0 20 C0.33 21.65 0.66 23.3 1 25 C-3.68 28.12 -8.52 27.59 -14 27 C-17.42 25.77 -20.32 24.37 -22 21 C-22.53 15.66 -22.69 11.32 -20.19 6.5 C-19.47 5.67 -18.74 4.85 -18 4 C-17.55 3.42 -17.09 2.85 -16.62 2.25 C-11.69 -1.54 -5.78 -1.78 0 0 Z " fill="#FB914E" transform="translate(329,1196)"/>
<path d="M0 0 C1.12 -0.01 2.23 -0.01 3.38 -0.02 C6.34 0.24 8.01 0.58 10.44 2.25 C11.69 4.88 11.69 4.88 12.44 7.25 C11.45 7.91 10.46 8.57 9.44 9.25 C7.52 8.46 5.61 7.66 3.69 6.87 C-0.31 5.77 -3.77 6.77 -7.56 8.25 C-11.5 10.68 -13.44 12.74 -14.56 17.25 C-14.99 20.17 -14.9 22.22 -14.56 25.25 C-11.4 28.49 -8.88 30.15 -4.38 30.5 C-0 30.21 2.54 29.16 6.44 27.25 C7.1 28.9 7.76 30.55 8.44 32.25 C3.82 36.69 0.34 36.85 -5.88 36.79 C-12.81 36.52 -16.82 33.99 -21.56 29.25 C-23.67 23.76 -23.11 17.97 -21 12.62 C-18.38 7.24 -14.59 3.75 -9.25 1.11 C-6.05 0.09 -3.35 -0.02 0 0 Z " fill="#FC914E" transform="translate(636.5625,1186.75)"/>
<path d="M0 0 C1.31 2.62 1.31 2.62 2 5 C0.44 6.19 0.44 6.19 -2 7 C-3.72 6.25 -5.45 5.5 -7.14 4.68 C-11.34 3.14 -15.22 4.73 -19.25 6.12 C-22.76 8.52 -24.12 10.94 -25 15 C-25.22 18.35 -25.18 21.65 -25 25 C-24.22 25.31 -23.43 25.62 -22.62 25.94 C-20 27 -20 27 -18 28 C-12.7 28.41 -9.61 27.57 -5 25 C-4.34 25 -3.68 25 -3 25 C-2.67 26.65 -2.34 28.3 -2 30 C-6.61 34.44 -10.1 34.62 -16.32 34.53 C-21.98 34.29 -26.02 33.07 -30 29 C-33.03 24.65 -33.54 21.24 -33 16 C-31.43 9.73 -28.6 4.69 -23.32 0.74 C-16.4 -3.37 -7.18 -3.69 0 0 Z " fill="#FC914E" transform="translate(919,1189)"/>
<path d="M0 0 C0.66 -0.33 1.32 -0.66 2 -1 C6.46 -1.12 9.96 -0.79 13.56 1.94 C17.36 10.04 14.36 18.83 12 27 C10.35 27 8.7 27 7 27 C5.75 23.24 6.43 20.92 7 17 C7.44 11.33 7.44 11.33 6 6 C1.86 5.92 1.86 5.92 -2 7 C-6.1 12.21 -6.99 19.61 -8 26 C-9.65 26.33 -11.3 26.66 -13 27 C-16.04 22.44 -14.4 18.74 -13.38 13.56 C-13.13 12.13 -13.13 12.13 -12.87 10.67 C-12.1 6.64 -11.49 3.68 -9.08 0.32 C-5.93 -1.68 -3.53 -0.72 0 0 Z " fill="#FC914E" transform="translate(377,1196)"/>
<path d="M0 0 C3.37 0.43 5.32 0.36 8.56 -0.19 C12.03 -0.65 12.68 -0.65 15.88 1.19 C18.34 3.96 19.91 5.98 19.98 9.76 C19.29 15.44 18.28 20.93 16.94 26.5 C15.28 26.88 13.61 27.21 11.94 27.5 C11.61 27.17 11.28 26.84 10.94 26.5 C11.12 22.67 11.39 18.85 11.71 15.03 C11.77 14.22 11.82 13.42 11.88 12.6 C11.94 11.86 12 11.12 12.06 10.36 C12.13 8.25 12.13 8.25 9.94 6.5 C7.72 6.48 7.72 6.48 5.31 6.88 C4.5 6.99 3.68 7.1 2.84 7.21 C2.21 7.31 1.58 7.4 0.94 7.5 C-1.22 15.52 -1.22 15.52 -2.69 23.69 C-3.06 26.5 -3.06 26.5 -4.06 27.5 C-5.73 27.54 -7.4 27.54 -9.06 27.5 C-10.04 23.71 -10 21.04 -9.14 17.23 C-8.81 15.78 -8.81 15.78 -8.47 14.29 C-8.23 13.29 -8 12.28 -7.75 11.25 C-7.52 10.23 -7.3 9.21 -7.06 8.16 C-5.77 2.57 -5.77 2.57 -5.06 0.5 C-3.06 -0.5 -3.06 -0.5 0 0 Z " fill="#FB914E" transform="translate(519.0625,1195.5)"/>
<path d="M0 0 C1.39 0.56 1.39 0.56 2.81 1.12 C4.39 1.56 4.39 1.56 6 2 C6.99 1.34 7.98 0.68 9 0 C12.14 -0.28 14.98 0.08 18 1 C21.17 4.17 21.9 6.19 22.44 10.62 C22.17 16.22 20.5 21.63 19 27 C17.34 27.38 15.68 27.71 14 28 C13.67 27.67 13.34 27.34 13 27 C13.09 25.66 13.25 24.33 13.44 23 C14.29 16.01 14.29 16.01 14 9 C13.34 8.34 12.68 7.68 12 7 C9.78 6.98 9.78 6.98 7.38 7.38 C6.56 7.49 5.74 7.6 4.9 7.71 C4.27 7.81 3.65 7.9 3 8 C2.72 9.28 2.45 10.55 2.16 11.87 C1.79 13.54 1.43 15.21 1.06 16.88 C0.88 17.72 0.7 18.56 0.51 19.43 C0.33 20.23 0.16 21.04 -0.03 21.87 C-0.27 22.98 -0.27 22.98 -0.52 24.12 C-1 26 -1 26 -2 28 C-4.44 27.62 -4.44 27.62 -7 27 C-8.88 23.23 -7.06 18.63 -6.31 14.62 C-6.15 13.67 -5.99 12.71 -5.82 11.72 C-4.21 3.03 -4.21 3.03 0 0 Z " fill="#FB914E" transform="translate(255,1195)"/>
<path d="M0 0 C2.12 0.94 2.12 0.94 4 2 C3.86 3.2 3.71 4.41 3.56 5.65 C3.37 7.22 3.19 8.8 3 10.38 C2.86 11.57 2.86 11.57 2.71 12.78 C2.19 16.88 2.19 16.88 2 21 C3.24 21.25 4.48 21.49 5.75 21.75 C6.45 21.89 7.14 22.03 7.86 22.17 C10.14 22.17 10.14 22.17 12.14 20.52 C15 16.64 15.54 12.3 16.42 7.67 C17.57 2.3 17.57 2.3 20.12 0.51 C20.74 0.34 21.36 0.17 22 0 C24 2 24 2 24.08 4.11 C23.29 11.88 21.76 19.4 20 27 C16.54 27.78 14.41 27.97 11 27 C10.67 27.33 10.34 27.66 10 28 C5.48 28.58 1.74 28.26 -2.56 26.75 C-5.93 22.95 -5.65 20.21 -5.4 15.26 C-4.8 10.37 -3.87 5.57 -2 1 C-1.34 0.67 -0.68 0.34 0 0 Z " fill="#FC914E" transform="translate(693,1195)"/>
<path d="M0 0 C1.65 0.33 3.3 0.66 5 1 C5.33 2.65 5.66 4.3 6 6 C7.65 6.33 9.3 6.66 11 7 C10.67 8.32 10.34 9.64 10 11 C8.02 11.33 6.04 11.66 4 12 C3.01 16.95 2.02 21.9 1 27 C2.98 27.33 4.96 27.66 7 28 C7.56 29.94 7.56 29.94 8 32 C6.17 33.83 3.65 33.29 1.2 33.43 C-2.21 32.77 -3.7 31.61 -6 29 C-6.15 25.94 -6.08 23.49 -5.69 20.5 C-4.8 14 -4.8 14 -7 8 C-6 6 -6 6 -4.06 5.12 C-1.58 3.77 -1.03 2.58 0 0 Z " fill="#FC914E" transform="translate(443,1190)"/>
<path d="M0 0 C1.65 0.33 3.3 0.66 5 1 C5.33 2.65 5.66 4.3 6 6 C7.65 6.33 9.3 6.66 11 7 C11 7.99 11 8.98 11 10 C10.67 10.33 10.34 10.66 10 11 C8.02 11 6.04 11 4 11 C3.34 15.95 2.68 20.9 2 26 C4.48 26.99 4.48 26.99 7 28 C7.81 30.62 7.81 30.62 8 33 C6.58 33.08 5.17 33.14 3.75 33.19 C2.57 33.24 2.57 33.24 1.36 33.29 C-1.63 32.92 -2.91 32.15 -5 30 C-6.26 23.99 -4.71 17.78 -3 12 C-3.66 12 -4.32 12 -5 12 C-5.33 10.35 -5.66 8.7 -6 7 C-5.07 6.66 -5.07 6.66 -4.12 6.31 C-1.39 4.62 -0.95 3.01 0 0 Z " fill="#FC914E" transform="translate(291,1190)"/>
<path d="M0 0 C3.29 2.44 4.75 4.62 7 8 C7 9.32 7 10.64 7 12 C-2.24 12 -11.48 12 -21 12 C-21 7 -21 7 -19.54 5.23 C-18.91 4.74 -18.28 4.25 -17.62 3.75 C-17 3.25 -16.37 2.75 -15.73 2.23 C-11.04 -1.11 -5.55 -0.67 0 0 Z " fill="#E7E7E7" transform="translate(1042,1062)"/>
<path d="M0 0 C1.65 0.33 3.3 0.66 5 1 C4.3 8.4 3.02 15.59 1.56 22.88 C1.35 24 1.13 25.13 0.9 26.29 C0.69 27.37 0.48 28.44 0.25 29.55 C0.06 30.53 -0.13 31.5 -0.33 32.51 C-1 35 -1 35 -3 38 C-4.32 38 -5.64 38 -7 38 C-8.43 34.11 -7.63 30.94 -6.86 26.93 C-6.66 25.92 -6.66 25.92 -6.46 24.89 C-6.19 23.46 -5.91 22.04 -5.62 20.62 C-5.19 18.44 -4.77 16.27 -4.36 14.09 C-4.09 12.7 -3.82 11.32 -3.54 9.93 C-3.3 8.68 -3.05 7.42 -2.79 6.12 C-2 3 -2 3 0 0 Z " fill="#FC914E" transform="translate(590,1185)"/>
<path d="M0 0 C0.95 0.35 1.9 0.7 2.88 1.06 C3.2 0.73 3.54 0.4 3.88 0.06 C5.87 0.02 7.88 0.02 9.88 0.06 C9.88 1.71 9.88 3.36 9.88 5.06 C8.64 5.33 7.4 5.6 6.12 5.88 C3.15 6.98 2.1 7.68 0.49 10.46 C-1.4 15.58 -2.64 20.64 -3.12 26.06 C-5.5 26.69 -5.5 26.69 -8.12 27.06 C-8.79 26.4 -9.44 25.74 -10.12 25.06 C-9.69 16.83 -7.81 7.86 -5.12 0.06 C-3.12 -0.94 -3.12 -0.94 0 0 Z " fill="#FC914E" transform="translate(350.125,1195.9375)"/>
<path d="M0 0 C0.99 0.66 1.98 1.32 3 2 C2.34 3.65 1.68 5.3 1 7 C-1.31 7.33 -3.62 7.66 -6 8 C-7.97 14.29 -9.65 20.55 -11 27 C-12.65 27.33 -14.3 27.66 -16 28 C-18.31 24.54 -18.15 24.1 -17.39 20.22 C-17.12 18.83 -17.12 18.83 -16.85 17.42 C-16.65 16.46 -16.45 15.49 -16.25 14.5 C-16.07 13.54 -15.88 12.57 -15.7 11.58 C-14.28 4.41 -14.28 4.41 -12 1 C-9.94 0.74 -9.94 0.74 -7.56 0.88 C-4.54 1.02 -2.93 0.98 0 0 Z " fill="#FC914E" transform="translate(812,1195)"/>
<path d="M0 0 C-0.56 2.38 -0.56 2.38 -2 5 C-3.13 5.27 -4.27 5.54 -5.44 5.81 C-9.33 6.65 -9.33 6.65 -10.75 10.44 C-11.2 11.95 -11.61 13.47 -12 15 C-12.28 15.98 -12.55 16.96 -12.84 17.97 C-13.59 20.64 -14.3 23.32 -15 26 C-16.65 26 -18.3 26 -20 26 C-20.97 22.21 -20.94 19.54 -20.07 15.73 C-19.74 14.28 -19.74 14.28 -19.41 12.79 C-19.17 11.79 -18.93 10.78 -18.69 9.75 C-18.46 8.73 -18.24 7.71 -18 6.66 C-16.71 1.07 -16.71 1.07 -16 -1 C-11.7 -3.15 -4.63 -0.81 0 0 Z " fill="#FC914E" transform="translate(743,1197)"/>
<path d="M0 0 C-0.56 2.38 -0.56 2.38 -2 5 C-3.13 5.27 -4.27 5.54 -5.44 5.81 C-9.34 6.65 -9.34 6.65 -10.81 10.5 C-12.23 15.25 -13.15 20.13 -14 25 C-15.65 25.33 -17.3 25.66 -19 26 C-21.19 22.54 -21.04 20.55 -20.17 16.61 C-19.84 15.08 -19.84 15.08 -19.5 13.52 C-19.25 12.46 -19 11.4 -18.75 10.31 C-18.4 8.71 -18.4 8.71 -18.05 7.07 C-16.74 1.23 -16.74 1.23 -16 -1 C-11.7 -3.15 -4.63 -0.81 0 0 Z " fill="#FC914E" transform="translate(981,1197)"/>
<path d="M0 0 C1.94 0.69 1.94 0.69 2.94 2.69 C2.7 4.49 2.38 6.29 2.01 8.07 C1.79 9.16 1.57 10.24 1.35 11.36 C1.11 12.5 0.87 13.64 0.62 14.81 C0.4 15.93 0.17 17.05 -0.06 18.2 C-1.26 24.06 -2.55 29.89 -4.06 35.69 C-6.44 35.88 -6.44 35.88 -9.06 35.69 C-11.06 32.69 -11.06 32.69 -10.68 29.43 C-10.4 28.09 -10.1 26.76 -9.8 25.43 C-9.64 24.73 -9.49 24.02 -9.33 23.3 C-9 21.81 -8.67 20.33 -8.33 18.84 C-7.81 16.57 -7.32 14.29 -6.82 12 C-6.5 10.56 -6.18 9.12 -5.86 7.68 C-5.71 6.99 -5.56 6.31 -5.41 5.6 C-5.02 3.95 -4.55 2.31 -4.06 0.69 C-2.06 -0.31 -2.06 -0.31 0 0 Z " fill="#FC914E" transform="translate(241.0625,1187.3125)"/>
<path d="M0 0 C2.8 2.25 2.97 3.82 3.5 7.38 C2.82 12.3 1.74 13.74 -2 17 C-5.5 17.69 -5.5 17.69 -9 17 C-12 14.88 -12 14.88 -14 12 C-14.1 7.13 -12.27 4.47 -9 1 C-5.92 -0.54 -3.39 -0.3 0 0 Z " fill="#E7E7E7" transform="translate(494,1201)"/>
<path d="M0 0 C2.98 2.38 3.02 4.13 3.5 7.94 C3.36 11.27 2.94 12.09 0.94 15 C-2.74 17.51 -4.63 17.72 -9 17 C-11.5 15.56 -11.5 15.56 -13 13 C-13.22 9.11 -13.13 5.41 -10.63 2.29 C-7.35 -0.3 -4.02 -0.42 0 0 Z " fill="#E7E7E7" transform="translate(671,1201)"/>
<path d="M0 0 C1.94 1.5 1.94 1.5 3 4 C3.63 8.99 3.8 10.87 0.88 15 C-2 17 -2 17 -5 17.56 C-8.88 16.83 -10.5 16.1 -13 13 C-13.4 9.78 -13.01 7.07 -12 4 C-8.51 -0.21 -5.34 -0.79 0 0 Z " fill="#E7E7E7" transform="translate(1039,1201)"/>
<path d="M0 0 C2.83 2.28 2.98 3.83 3.44 7.44 C2.93 11.55 1.9 13.1 -1 16 C-3.81 17.4 -5.89 17.25 -9 17 C-11.38 16 -11.38 16 -13 14 C-13.62 9.22 -13.73 7.14 -11.12 3.06 C-7.54 -0.42 -4.95 -0.43 0 0 Z " fill="#E7E7E7" transform="translate(565,1201)"/>
<path d="M0 0 C2.98 2.38 3.02 4.13 3.5 7.94 C3.36 11.31 2.95 12.07 0.88 15 C-2 17 -2 17 -5 17.56 C-8.84 16.84 -10.5 16.03 -13 13 C-13 8.74 -12.7 6.24 -10.62 2.56 C-7.54 -0.41 -4.08 -0.43 0 0 Z " fill="#E7E7E7" transform="translate(943,1201)"/>
<path d="M0 0 C2.1 1.57 2.89 2.51 3.47 5.09 C3.53 9.38 3.39 11.43 0.88 15.06 C-2 17 -2 17 -5 17.62 C-9.11 16.77 -10.6 15.42 -13 12 C-13.07 7.88 -12.67 5.83 -10.06 2.62 C-6.61 -0.1 -4.39 -0.36 0 0 Z " fill="#E7E7E7" transform="translate(418,1201)"/>
<path d="M0 0 C2.59 2.17 2.94 3.62 3.5 6.94 C2.81 11.15 1.43 12.52 -2 15 C-5.71 15.52 -8 15.43 -11.44 13.94 C-13 12 -13 12 -13.5 8.56 C-12.93 4.52 -12.18 3.43 -9 1 C-5.92 -0.54 -3.39 -0.3 0 0 Z " fill="#E7E7E7" transform="translate(1003,1201)"/>
<path d="M0 0 C1.56 5.89 0.32 10.98 -0.88 16.81 C-1.06 17.78 -1.25 18.74 -1.44 19.74 C-2.85 26.85 -2.85 26.85 -4 28 C-5.67 28.04 -7.33 28.04 -9 28 C-10.16 24.55 -9.84 22.14 -9.07 18.61 C-8.85 17.59 -8.63 16.57 -8.41 15.52 C-8.17 14.46 -7.93 13.4 -7.69 12.31 C-7.46 11.24 -7.24 10.17 -7 9.07 C-5.7 3.16 -5.7 3.16 -5 1 C-3 0 -3 0 0 0 Z " fill="#FC914E" transform="translate(755,1195)"/>
<path d="M0 0 C2.12 0.38 2.12 0.38 4 1 C4.26 6.91 3.3 12.18 2 17.94 C1.81 18.81 1.62 19.69 1.42 20.59 C0.95 22.73 0.48 24.86 0 27 C-1.65 27.33 -3.3 27.66 -5 28 C-7 25 -7 25 -6.8 22.58 C-6.59 21.64 -6.39 20.71 -6.17 19.75 C-5.95 18.73 -5.73 17.71 -5.5 16.66 C-5.25 15.6 -5 14.53 -4.75 13.44 C-4.4 11.84 -4.4 11.84 -4.05 10.21 C-2.27 2.27 -2.27 2.27 0 0 Z " fill="#FC914E" transform="translate(465,1195)"/>
<path d="M0 0 C2.91 2.22 4.95 3.93 7 7 C7 7.99 7 8.98 7 10 C3.87 11.56 0.42 11.4 -3 11 C-3.99 10.34 -4.98 9.68 -6 9 C-5.81 6.19 -5.81 6.19 -5 3 C-2.44 1.12 -2.44 1.12 0 0 Z " fill="#E7E7E7" transform="translate(844,1207)"/>
<path d="M0 0 C2.44 1.38 2.44 1.38 4.44 6.38 C0.15 6.38 -4.14 6.38 -8.56 6.38 C-8.89 5.38 -9.22 4.39 -9.56 3.38 C-4.06 -0.99 -4.06 -0.99 0 0 Z " fill="#E7E7E7" transform="translate(778.5625,1200.625)"/>
<path d="M0 0 C2.44 1.88 2.44 1.88 4 4 C4 4.66 4 5.32 4 6 C-0.62 6 -5.24 6 -10 6 C-10 4.68 -10 3.36 -10 2 C-6.28 -0.48 -4.4 -0.46 0 0 Z " fill="#E7E7E7" transform="translate(325,1201)"/>
<path d="M0 0 C1.32 0.99 2.64 1.98 4 3 C3.81 4.88 3.81 4.88 3 7 C0.44 8.25 0.44 8.25 -2 9 C-4 7 -4 7 -4.12 4.38 C-4.08 3.59 -4.04 2.81 -4 2 C-2.68 1.34 -1.36 0.68 0 0 Z " fill="#E7E7E7" transform="translate(850,1191)"/>
<path d="M0 0 C1.32 1.32 2.64 2.64 4 4 C3.34 5.32 2.68 6.64 2 8 C0.35 7.67 -1.3 7.34 -3 7 C-3.33 5.68 -3.66 4.36 -4 3 C-2.68 2.01 -1.36 1.02 0 0 Z " fill="#FC914E" transform="translate(755,1183)"/>
<path d="M0 0 C1.32 0 2.64 0 4 0 C4.33 1.65 4.66 3.3 5 5 C3.25 6.12 3.25 6.12 1 7 C-1.25 6.12 -1.25 6.12 -3 5 C-1.12 1.12 -1.12 1.12 0 0 Z " fill="#FC914E" transform="translate(467,1184)"/>
<path d="M0 0 C4.14 3.38 7.81 6.67 11 11 C8 11 8 11 5.74 9.03 C4.94 8.2 4.14 7.36 3.31 6.5 C2.5 5.66 1.7 4.83 0.86 3.97 C0.25 3.32 -0.37 2.67 -1 2 C-0.67 1.34 -0.34 0.68 0 0 Z " fill="#F5AE82" transform="translate(298,105)"/>
</svg>
